<svg width="1280" height="5948" viewBox="0 0 1280 5948" fill="none" xmlns="http://www.w3.org/2000/svg">
<g filter="url(#filter0_f_177_19)">
<mask id="mask0_177_19" style="mask-type:alpha" maskUnits="userSpaceOnUse" x="791" y="4519" width="565" height="565">
<circle cx="1073.5" cy="4801.5" r="282.5" fill="#5F5F5F" fill-opacity="0.66"/>
</mask>
<g mask="url(#mask0_177_19)">
<circle cx="1072.85" cy="5063.73" r="20.272" fill="#5F5F5F" fill-opacity="0.66"/>
<circle cx="1072.85" cy="4539.27" r="20.272" fill="#5F5F5F" fill-opacity="0.66"/>
<circle cx="1072.85" cy="4591.59" r="20.272" fill="#5F5F5F" fill-opacity="0.66"/>
<circle cx="1072.85" cy="4643.9" r="20.272" fill="#5F5F5F" fill-opacity="0.66"/>
<circle cx="1072.85" cy="4696.22" r="20.272" fill="#5F5F5F" fill-opacity="0.66"/>
<circle cx="1072.85" cy="4748.53" r="20.272" fill="#5F5F5F" fill-opacity="0.66"/>
<circle cx="1072.85" cy="4853.16" r="20.272" fill="#5F5F5F" fill-opacity="0.66"/>
<circle cx="1072.85" cy="4905.48" r="20.272" fill="#5F5F5F" fill-opacity="0.66"/>
<circle cx="1072.85" cy="4957.79" r="20.272" fill="#5F5F5F" fill-opacity="0.66"/>
<circle cx="1072.85" cy="5010.11" r="20.272" fill="#5F5F5F" fill-opacity="0.66"/>
<circle cx="1282.11" cy="4800.85" r="20.272" transform="rotate(90 1282.11 4800.85)" fill="#5F5F5F" fill-opacity="0.66"/>
<circle cx="1229.79" cy="4800.85" r="20.272" transform="rotate(90 1229.79 4800.85)" fill="#5F5F5F" fill-opacity="0.66"/>
<circle cx="1177.48" cy="4800.85" r="20.272" transform="rotate(90 1177.48 4800.85)" fill="#5F5F5F" fill-opacity="0.66"/>
<circle cx="1125.16" cy="4800.85" r="20.272" transform="rotate(90 1125.16 4800.85)" fill="#5F5F5F" fill-opacity="0.66"/>
<circle cx="1020.53" cy="4800.85" r="20.272" transform="rotate(90 1020.53 4800.85)" fill="#5F5F5F" fill-opacity="0.66"/>
<circle cx="968.216" cy="4800.85" r="20.272" transform="rotate(90 968.216 4800.85)" fill="#5F5F5F" fill-opacity="0.66"/>
<circle cx="915.902" cy="4800.85" r="20.272" transform="rotate(90 915.902 4800.85)" fill="#5F5F5F" fill-opacity="0.66"/>
<circle cx="863.587" cy="4800.85" r="20.272" transform="rotate(90 863.587 4800.85)" fill="#5F5F5F" fill-opacity="0.66"/>
<circle cx="1072.85" cy="4800.85" r="20.272" fill="#5F5F5F" fill-opacity="0.66"/>
<circle cx="811.272" cy="4800.85" r="20.272" fill="#5F5F5F" fill-opacity="0.66"/>
<circle cx="809.964" cy="4748.53" r="20.272" fill="#5F5F5F" fill-opacity="0.66"/>
<circle cx="862.279" cy="4748.53" r="20.272" fill="#5F5F5F" fill-opacity="0.66"/>
<circle cx="914.594" cy="4748.53" r="20.272" fill="#5F5F5F" fill-opacity="0.66"/>
<circle cx="966.909" cy="4748.53" r="20.272" fill="#5F5F5F" fill-opacity="0.66"/>
<circle cx="1019.22" cy="4748.53" r="20.272" fill="#5F5F5F" fill-opacity="0.66"/>
<circle cx="809.964" cy="4696.22" r="20.272" fill="#5F5F5F" fill-opacity="0.66"/>
<circle cx="862.279" cy="4696.22" r="20.272" fill="#5F5F5F" fill-opacity="0.66"/>
<circle cx="914.594" cy="4696.22" r="20.272" fill="#5F5F5F" fill-opacity="0.66"/>
<circle cx="966.909" cy="4696.22" r="20.272" fill="#5F5F5F" fill-opacity="0.66"/>
<circle cx="1019.22" cy="4696.22" r="20.272" fill="#5F5F5F" fill-opacity="0.66"/>
<circle cx="809.964" cy="4643.9" r="20.272" fill="#5F5F5F" fill-opacity="0.66"/>
<circle cx="862.279" cy="4643.9" r="20.272" fill="#5F5F5F" fill-opacity="0.66"/>
<circle cx="914.594" cy="4643.9" r="20.272" fill="#5F5F5F" fill-opacity="0.66"/>
<circle cx="966.909" cy="4643.9" r="20.272" fill="#5F5F5F" fill-opacity="0.66"/>
<circle cx="1019.22" cy="4643.9" r="20.272" fill="#5F5F5F" fill-opacity="0.66"/>
<circle cx="809.964" cy="4591.59" r="20.272" fill="#5F5F5F" fill-opacity="0.66"/>
<circle cx="862.279" cy="4591.59" r="20.272" fill="#5F5F5F" fill-opacity="0.66"/>
<circle cx="914.594" cy="4591.59" r="20.272" fill="#5F5F5F" fill-opacity="0.66"/>
<circle cx="966.909" cy="4591.59" r="20.272" fill="#5F5F5F" fill-opacity="0.66"/>
<circle cx="1019.22" cy="4591.59" r="20.272" fill="#5F5F5F" fill-opacity="0.66"/>
<circle cx="862.279" cy="4539.27" r="20.272" fill="#5F5F5F" fill-opacity="0.66"/>
<circle cx="914.594" cy="4539.27" r="20.272" fill="#5F5F5F" fill-opacity="0.66"/>
<circle cx="966.909" cy="4539.27" r="20.272" fill="#5F5F5F" fill-opacity="0.66"/>
<circle cx="1019.22" cy="4539.27" r="20.272" fill="#5F5F5F" fill-opacity="0.66"/>
<circle cx="1123.85" cy="4539.27" r="20.272" fill="#5F5F5F" fill-opacity="0.66"/>
<circle cx="1176.17" cy="4539.27" r="20.272" fill="#5F5F5F" fill-opacity="0.66"/>
<circle cx="1228.48" cy="4539.27" r="20.272" fill="#5F5F5F" fill-opacity="0.66"/>
<circle cx="1280.8" cy="4539.27" r="20.272" fill="#5F5F5F" fill-opacity="0.66"/>
<circle cx="1123.85" cy="4591.59" r="20.272" fill="#5F5F5F" fill-opacity="0.66"/>
<circle cx="1176.17" cy="4591.59" r="20.272" fill="#5F5F5F" fill-opacity="0.66"/>
<circle cx="1228.48" cy="4591.59" r="20.272" fill="#5F5F5F" fill-opacity="0.66"/>
<circle cx="1280.8" cy="4591.59" r="20.272" fill="#5F5F5F" fill-opacity="0.66"/>
<circle cx="1123.85" cy="4643.9" r="20.272" fill="#5F5F5F" fill-opacity="0.66"/>
<circle cx="1176.17" cy="4643.9" r="20.272" fill="#5F5F5F" fill-opacity="0.66"/>
<circle cx="1228.48" cy="4643.9" r="20.272" fill="#5F5F5F" fill-opacity="0.66"/>
<circle cx="1280.8" cy="4643.9" r="20.272" fill="#5F5F5F" fill-opacity="0.66"/>
<circle cx="1123.85" cy="4696.22" r="20.272" fill="#5F5F5F" fill-opacity="0.66"/>
<circle cx="1176.17" cy="4696.22" r="20.272" fill="#5F5F5F" fill-opacity="0.66"/>
<circle cx="1228.48" cy="4696.22" r="20.272" fill="#5F5F5F" fill-opacity="0.66"/>
<circle cx="1280.8" cy="4696.22" r="20.272" fill="#5F5F5F" fill-opacity="0.66"/>
<circle cx="1123.85" cy="4748.53" r="20.272" fill="#5F5F5F" fill-opacity="0.66"/>
<circle cx="1176.17" cy="4748.53" r="20.272" fill="#5F5F5F" fill-opacity="0.66"/>
<circle cx="1228.48" cy="4748.53" r="20.272" fill="#5F5F5F" fill-opacity="0.66"/>
<circle cx="1280.8" cy="4748.53" r="20.272" fill="#5F5F5F" fill-opacity="0.66"/>
<circle cx="1123.85" cy="4853.16" r="20.272" fill="#5F5F5F" fill-opacity="0.66"/>
<circle cx="1176.17" cy="4853.16" r="20.272" fill="#5F5F5F" fill-opacity="0.66"/>
<circle cx="1228.48" cy="4853.16" r="20.272" fill="#5F5F5F" fill-opacity="0.66"/>
<circle cx="1280.8" cy="4853.16" r="20.272" fill="#5F5F5F" fill-opacity="0.66"/>
<circle cx="1123.85" cy="4905.48" r="20.272" fill="#5F5F5F" fill-opacity="0.66"/>
<circle cx="1176.17" cy="4905.48" r="20.272" fill="#5F5F5F" fill-opacity="0.66"/>
<circle cx="1228.48" cy="4905.48" r="20.272" fill="#5F5F5F" fill-opacity="0.66"/>
<circle cx="1280.8" cy="4905.48" r="20.272" fill="#5F5F5F" fill-opacity="0.66"/>
<circle cx="1123.85" cy="4957.79" r="20.272" fill="#5F5F5F" fill-opacity="0.66"/>
<circle cx="1176.17" cy="4957.79" r="20.272" fill="#5F5F5F" fill-opacity="0.66"/>
<circle cx="1228.48" cy="4957.79" r="20.272" fill="#5F5F5F" fill-opacity="0.66"/>
<circle cx="1280.8" cy="4957.79" r="20.272" fill="#5F5F5F" fill-opacity="0.66"/>
<circle cx="1123.85" cy="5010.11" r="20.272" fill="#5F5F5F" fill-opacity="0.66"/>
<circle cx="1176.17" cy="5010.11" r="20.272" fill="#5F5F5F" fill-opacity="0.66"/>
<circle cx="1228.48" cy="5010.11" r="20.272" fill="#5F5F5F" fill-opacity="0.66"/>
<circle cx="1280.8" cy="5010.11" r="20.272" fill="#5F5F5F" fill-opacity="0.66"/>
<circle cx="1123.85" cy="5062.42" r="20.272" fill="#5F5F5F" fill-opacity="0.66"/>
<circle cx="1176.17" cy="5062.42" r="20.272" fill="#5F5F5F" fill-opacity="0.66"/>
<circle cx="1228.48" cy="5062.42" r="20.272" fill="#5F5F5F" fill-opacity="0.66"/>
<circle cx="1280.8" cy="5062.42" r="20.272" fill="#5F5F5F" fill-opacity="0.66"/>
<circle cx="809.964" cy="5062.42" r="20.272" fill="#5F5F5F" fill-opacity="0.66"/>
<circle cx="862.279" cy="5062.42" r="20.272" fill="#5F5F5F" fill-opacity="0.66"/>
<circle cx="914.594" cy="5062.42" r="20.272" fill="#5F5F5F" fill-opacity="0.66"/>
<circle cx="966.909" cy="5062.42" r="20.272" fill="#5F5F5F" fill-opacity="0.66"/>
<circle cx="1019.22" cy="5062.42" r="20.272" fill="#5F5F5F" fill-opacity="0.66"/>
<circle cx="809.964" cy="5010.11" r="20.272" fill="#5F5F5F" fill-opacity="0.66"/>
<circle cx="862.279" cy="5010.11" r="20.272" fill="#5F5F5F" fill-opacity="0.66"/>
<circle cx="914.594" cy="5010.11" r="20.272" fill="#5F5F5F" fill-opacity="0.66"/>
<circle cx="966.909" cy="5010.11" r="20.272" fill="#5F5F5F" fill-opacity="0.66"/>
<circle cx="1019.22" cy="5010.11" r="20.272" fill="#5F5F5F" fill-opacity="0.66"/>
<circle cx="809.964" cy="4957.79" r="20.272" fill="#5F5F5F" fill-opacity="0.66"/>
<circle cx="862.279" cy="4957.79" r="20.272" fill="#5F5F5F" fill-opacity="0.66"/>
<circle cx="914.594" cy="4957.79" r="20.272" fill="#5F5F5F" fill-opacity="0.66"/>
<circle cx="966.909" cy="4957.79" r="20.272" fill="#5F5F5F" fill-opacity="0.66"/>
<circle cx="1019.22" cy="4957.79" r="20.272" fill="#5F5F5F" fill-opacity="0.66"/>
<circle cx="809.964" cy="4905.48" r="20.272" fill="#5F5F5F" fill-opacity="0.66"/>
<circle cx="862.279" cy="4905.48" r="20.272" fill="#5F5F5F" fill-opacity="0.66"/>
<circle cx="914.594" cy="4905.48" r="20.272" fill="#5F5F5F" fill-opacity="0.66"/>
<circle cx="966.909" cy="4905.48" r="20.272" fill="#5F5F5F" fill-opacity="0.66"/>
<circle cx="1019.22" cy="4905.48" r="20.272" fill="#5F5F5F" fill-opacity="0.66"/>
<circle cx="809.964" cy="4853.16" r="20.272" fill="#5F5F5F" fill-opacity="0.66"/>
<circle cx="862.279" cy="4853.16" r="20.272" fill="#5F5F5F" fill-opacity="0.66"/>
<circle cx="914.594" cy="4853.16" r="20.272" fill="#5F5F5F" fill-opacity="0.66"/>
<circle cx="966.909" cy="4853.16" r="20.272" fill="#5F5F5F" fill-opacity="0.66"/>
<circle cx="1019.22" cy="4853.16" r="20.272" fill="#5F5F5F" fill-opacity="0.66"/>
</g>
</g>
<circle cx="28.6127" cy="5682.12" r="6.83025" transform="rotate(0.459108 28.6127 5682.12)" fill="#4F4F4F"/>
<circle cx="79.8378" cy="5682.53" r="6.83025" transform="rotate(0.459108 79.8378 5682.53)" fill="#4F4F4F"/>
<circle cx="131.063" cy="5682.94" r="6.83025" transform="rotate(0.459108 131.063 5682.94)" fill="#4F4F4F"/>
<circle cx="182.288" cy="5683.35" r="6.83025" transform="rotate(0.459108 182.288 5683.35)" fill="#4F4F4F"/>
<circle cx="233.514" cy="5683.76" r="6.83025" transform="rotate(0.459108 233.514 5683.76)" fill="#4F4F4F"/>
<circle cx="284.739" cy="5684.17" r="6.83025" transform="rotate(0.459108 284.739 5684.17)" fill="#4F4F4F"/>
<circle cx="335.964" cy="5684.58" r="6.83025" transform="rotate(0.459108 335.964 5684.58)" fill="#4F4F4F"/>
<circle cx="387.189" cy="5684.99" r="6.83025" transform="rotate(0.459108 387.189 5684.99)" fill="#4F4F4F"/>
<circle cx="28.2021" cy="5733.34" r="6.83025" transform="rotate(0.459108 28.2021 5733.34)" fill="#4F4F4F"/>
<circle cx="79.4272" cy="5733.75" r="6.83025" transform="rotate(0.459108 79.4272 5733.75)" fill="#4F4F4F"/>
<circle cx="130.652" cy="5734.16" r="6.83025" transform="rotate(0.459108 130.652 5734.16)" fill="#4F4F4F"/>
<circle cx="181.878" cy="5734.57" r="6.83025" transform="rotate(0.459108 181.878 5734.57)" fill="#4F4F4F"/>
<circle cx="233.103" cy="5734.98" r="6.83025" transform="rotate(0.459108 233.103 5734.98)" fill="#4F4F4F"/>
<circle cx="284.329" cy="5735.39" r="6.83025" transform="rotate(0.459108 284.329 5735.39)" fill="#4F4F4F"/>
<circle cx="335.554" cy="5735.8" r="6.83025" transform="rotate(0.459108 335.554 5735.8)" fill="#4F4F4F"/>
<circle cx="386.779" cy="5736.21" r="6.83025" transform="rotate(0.459108 386.779 5736.21)" fill="#4F4F4F"/>
<circle cx="27.7919" cy="5784.57" r="6.83025" transform="rotate(0.459108 27.7919 5784.57)" fill="#4F4F4F"/>
<circle cx="79.017" cy="5784.98" r="6.83025" transform="rotate(0.459108 79.017 5784.98)" fill="#4F4F4F"/>
<circle cx="130.242" cy="5785.39" r="6.83025" transform="rotate(0.459108 130.242 5785.39)" fill="#4F4F4F"/>
<circle cx="181.468" cy="5785.8" r="6.83025" transform="rotate(0.459108 181.468 5785.8)" fill="#4F4F4F"/>
<circle cx="232.693" cy="5786.21" r="6.83025" transform="rotate(0.459108 232.693 5786.21)" fill="#4F4F4F"/>
<circle cx="283.918" cy="5786.62" r="6.83025" transform="rotate(0.459108 283.918 5786.62)" fill="#4F4F4F"/>
<circle cx="335.143" cy="5787.03" r="6.83025" transform="rotate(0.459108 335.143 5787.03)" fill="#4F4F4F"/>
<circle cx="386.368" cy="5787.44" r="6.83025" transform="rotate(0.459108 386.368 5787.44)" fill="#4F4F4F"/>
<circle cx="27.3813" cy="5835.79" r="6.83025" transform="rotate(0.459108 27.3813 5835.79)" fill="#4F4F4F"/>
<circle cx="78.6064" cy="5836.2" r="6.83025" transform="rotate(0.459108 78.6064 5836.2)" fill="#4F4F4F"/>
<circle cx="129.831" cy="5836.61" r="6.83025" transform="rotate(0.459108 129.831 5836.61)" fill="#4F4F4F"/>
<circle cx="181.057" cy="5837.02" r="6.83025" transform="rotate(0.459108 181.057 5837.02)" fill="#4F4F4F"/>
<circle cx="232.282" cy="5837.43" r="6.83025" transform="rotate(0.459108 232.282 5837.43)" fill="#4F4F4F"/>
<circle cx="283.507" cy="5837.84" r="6.83025" transform="rotate(0.459108 283.507 5837.84)" fill="#4F4F4F"/>
<circle cx="334.732" cy="5838.25" r="6.83025" transform="rotate(0.459108 334.732 5838.25)" fill="#4F4F4F"/>
<circle cx="385.958" cy="5838.67" r="6.83025" transform="rotate(0.459108 385.958 5838.67)" fill="#4F4F4F"/>
<circle cx="26.9711" cy="5887.02" r="6.83025" transform="rotate(0.459108 26.9711 5887.02)" fill="#4F4F4F"/>
<circle cx="78.1962" cy="5887.43" r="6.83025" transform="rotate(0.459108 78.1962 5887.43)" fill="#4F4F4F"/>
<circle cx="129.421" cy="5887.84" r="6.83025" transform="rotate(0.459108 129.421 5887.84)" fill="#4F4F4F"/>
<circle cx="180.646" cy="5888.25" r="6.83025" transform="rotate(0.459108 180.646 5888.25)" fill="#4F4F4F"/>
<circle cx="231.872" cy="5888.66" r="6.83025" transform="rotate(0.459108 231.872 5888.66)" fill="#4F4F4F"/>
<circle cx="283.097" cy="5889.07" r="6.83025" transform="rotate(0.459108 283.097 5889.07)" fill="#4F4F4F"/>
<circle cx="334.322" cy="5889.48" r="6.83025" transform="rotate(0.459108 334.322 5889.48)" fill="#4F4F4F"/>
<circle cx="385.547" cy="5889.89" r="6.83025" transform="rotate(0.459108 385.547 5889.89)" fill="#4F4F4F"/>
<circle cx="26.5605" cy="5938.24" r="6.83025" transform="rotate(0.459108 26.5605 5938.24)" fill="#4F4F4F"/>
<circle cx="77.7856" cy="5938.65" r="6.83025" transform="rotate(0.459108 77.7856 5938.65)" fill="#4F4F4F"/>
<circle cx="129.011" cy="5939.06" r="6.83025" transform="rotate(0.459108 129.011 5939.06)" fill="#4F4F4F"/>
<circle cx="180.236" cy="5939.47" r="6.83025" transform="rotate(0.459108 180.236 5939.47)" fill="#4F4F4F"/>
<circle cx="231.461" cy="5939.88" r="6.83025" transform="rotate(0.459108 231.461 5939.88)" fill="#4F4F4F"/>
<circle cx="282.686" cy="5940.29" r="6.83025" transform="rotate(0.459108 282.686 5940.29)" fill="#4F4F4F"/>
<circle cx="333.912" cy="5940.71" r="6.83025" transform="rotate(0.459108 333.912 5940.71)" fill="#4F4F4F"/>
<circle cx="385.137" cy="5941.12" r="6.83025" transform="rotate(0.459108 385.137 5941.12)" fill="#4F4F4F"/>
<circle cx="9.23296" cy="1015.27" r="4" transform="rotate(0.459108 9.23296 1015.27)" fill="#4F4F4F"/>
<circle cx="39.232" cy="1015.51" r="4" transform="rotate(0.459108 39.232 1015.51)" fill="#4F4F4F"/>
<circle cx="69.231" cy="1015.75" r="4" transform="rotate(0.459108 69.231 1015.75)" fill="#4F4F4F"/>
<circle cx="99.23" cy="1015.99" r="4" transform="rotate(0.459108 99.23 1015.99)" fill="#4F4F4F"/>
<circle cx="129.229" cy="1016.23" r="4" transform="rotate(0.459108 129.229 1016.23)" fill="#4F4F4F"/>
<circle cx="159.228" cy="1016.47" r="4" transform="rotate(0.459108 159.228 1016.47)" fill="#4F4F4F"/>
<circle cx="189.227" cy="1016.71" r="4" transform="rotate(0.459108 189.227 1016.71)" fill="#4F4F4F"/>
<circle cx="219.226" cy="1016.96" r="4" transform="rotate(0.459108 219.226 1016.96)" fill="#4F4F4F"/>
<circle cx="249.225" cy="1017.2" r="4" transform="rotate(0.459108 249.225 1017.2)" fill="#4F4F4F"/>
<circle cx="279.224" cy="1017.44" r="4" transform="rotate(0.459108 279.224 1017.44)" fill="#4F4F4F"/>
<circle cx="8.99272" cy="1045.27" r="4" transform="rotate(0.459108 8.99272 1045.27)" fill="#4F4F4F"/>
<circle cx="38.9917" cy="1045.51" r="4" transform="rotate(0.459108 38.9917 1045.51)" fill="#4F4F4F"/>
<circle cx="68.9908" cy="1045.75" r="4" transform="rotate(0.459108 68.9908 1045.75)" fill="#4F4F4F"/>
<circle cx="98.9898" cy="1045.99" r="4" transform="rotate(0.459108 98.9898 1045.99)" fill="#4F4F4F"/>
<circle cx="128.989" cy="1046.23" r="4" transform="rotate(0.459108 128.989 1046.23)" fill="#4F4F4F"/>
<circle cx="158.988" cy="1046.47" r="4" transform="rotate(0.459108 158.988 1046.47)" fill="#4F4F4F"/>
<circle cx="188.987" cy="1046.71" r="4" transform="rotate(0.459108 188.987 1046.71)" fill="#4F4F4F"/>
<circle cx="218.986" cy="1046.95" r="4" transform="rotate(0.459108 218.986 1046.95)" fill="#4F4F4F"/>
<circle cx="248.985" cy="1047.19" r="4" transform="rotate(0.459108 248.985 1047.19)" fill="#4F4F4F"/>
<circle cx="278.984" cy="1047.43" r="4" transform="rotate(0.459108 278.984 1047.43)" fill="#4F4F4F"/>
<circle cx="8.752" cy="1075.27" r="4" transform="rotate(0.459108 8.752 1075.27)" fill="#4F4F4F"/>
<circle cx="38.751" cy="1075.51" r="4" transform="rotate(0.459108 38.751 1075.51)" fill="#4F4F4F"/>
<circle cx="68.75" cy="1075.75" r="4" transform="rotate(0.459108 68.75 1075.75)" fill="#4F4F4F"/>
<circle cx="98.7491" cy="1075.99" r="4" transform="rotate(0.459108 98.7491 1075.99)" fill="#4F4F4F"/>
<circle cx="128.748" cy="1076.23" r="4" transform="rotate(0.459108 128.748 1076.23)" fill="#4F4F4F"/>
<circle cx="158.747" cy="1076.47" r="4" transform="rotate(0.459108 158.747 1076.47)" fill="#4F4F4F"/>
<circle cx="188.746" cy="1076.71" r="4" transform="rotate(0.459108 188.746 1076.71)" fill="#4F4F4F"/>
<circle cx="218.746" cy="1076.95" r="4" transform="rotate(0.459108 218.746 1076.95)" fill="#4F4F4F"/>
<circle cx="248.745" cy="1077.19" r="4" transform="rotate(0.459108 248.745 1077.19)" fill="#4F4F4F"/>
<circle cx="278.744" cy="1077.43" r="4" transform="rotate(0.459108 278.744 1077.43)" fill="#4F4F4F"/>
<circle cx="8.51177" cy="1105.27" r="4" transform="rotate(0.459108 8.51177 1105.27)" fill="#4F4F4F"/>
<circle cx="38.5108" cy="1105.51" r="4" transform="rotate(0.459108 38.5108 1105.51)" fill="#4F4F4F"/>
<circle cx="68.5098" cy="1105.75" r="4" transform="rotate(0.459108 68.5098 1105.75)" fill="#4F4F4F"/>
<circle cx="98.5088" cy="1105.99" r="4" transform="rotate(0.459108 98.5088 1105.99)" fill="#4F4F4F"/>
<circle cx="128.508" cy="1106.23" r="4" transform="rotate(0.459108 128.508 1106.23)" fill="#4F4F4F"/>
<circle cx="158.507" cy="1106.47" r="4" transform="rotate(0.459108 158.507 1106.47)" fill="#4F4F4F"/>
<circle cx="188.506" cy="1106.71" r="4" transform="rotate(0.459108 188.506 1106.71)" fill="#4F4F4F"/>
<circle cx="218.505" cy="1106.95" r="4" transform="rotate(0.459108 218.505 1106.95)" fill="#4F4F4F"/>
<circle cx="248.504" cy="1107.19" r="4" transform="rotate(0.459108 248.504 1107.19)" fill="#4F4F4F"/>
<circle cx="278.503" cy="1107.43" r="4" transform="rotate(0.459108 278.503 1107.43)" fill="#4F4F4F"/>
<circle cx="8.27153" cy="1135.27" r="4" transform="rotate(0.459108 8.27153 1135.27)" fill="#4F4F4F"/>
<circle cx="38.2706" cy="1135.51" r="4" transform="rotate(0.459108 38.2706 1135.51)" fill="#4F4F4F"/>
<circle cx="68.2696" cy="1135.75" r="4" transform="rotate(0.459108 68.2696 1135.75)" fill="#4F4F4F"/>
<circle cx="98.2686" cy="1135.99" r="4" transform="rotate(0.459108 98.2686 1135.99)" fill="#4F4F4F"/>
<circle cx="128.268" cy="1136.23" r="4" transform="rotate(0.459108 128.268 1136.23)" fill="#4F4F4F"/>
<circle cx="158.267" cy="1136.47" r="4" transform="rotate(0.459108 158.267 1136.47)" fill="#4F4F4F"/>
<circle cx="188.266" cy="1136.71" r="4" transform="rotate(0.459108 188.266 1136.71)" fill="#4F4F4F"/>
<circle cx="218.265" cy="1136.95" r="4" transform="rotate(0.459108 218.265 1136.95)" fill="#4F4F4F"/>
<circle cx="248.264" cy="1137.19" r="4" transform="rotate(0.459108 248.264 1137.19)" fill="#4F4F4F"/>
<circle cx="278.263" cy="1137.43" r="4" transform="rotate(0.459108 278.263 1137.43)" fill="#4F4F4F"/>
<circle cx="8.03081" cy="1165.27" r="4" transform="rotate(0.459108 8.03081 1165.27)" fill="#4F4F4F"/>
<circle cx="38.0298" cy="1165.51" r="4" transform="rotate(0.459108 38.0298 1165.51)" fill="#4F4F4F"/>
<circle cx="68.0289" cy="1165.75" r="4" transform="rotate(0.459108 68.0289 1165.75)" fill="#4F4F4F"/>
<circle cx="98.0279" cy="1165.99" r="4" transform="rotate(0.459108 98.0279 1165.99)" fill="#4F4F4F"/>
<circle cx="128.027" cy="1166.23" r="4" transform="rotate(0.459108 128.027 1166.23)" fill="#4F4F4F"/>
<circle cx="158.026" cy="1166.47" r="4" transform="rotate(0.459108 158.026 1166.47)" fill="#4F4F4F"/>
<circle cx="188.025" cy="1166.71" r="4" transform="rotate(0.459108 188.025 1166.71)" fill="#4F4F4F"/>
<circle cx="218.024" cy="1166.95" r="4" transform="rotate(0.459108 218.024 1166.95)" fill="#4F4F4F"/>
<circle cx="248.023" cy="1167.19" r="4" transform="rotate(0.459108 248.023 1167.19)" fill="#4F4F4F"/>
<circle cx="278.023" cy="1167.43" r="4" transform="rotate(0.459108 278.023 1167.43)" fill="#4F4F4F"/>
<circle cx="1066.23" cy="1482.03" r="4" transform="rotate(0.459108 1066.23 1482.03)" fill="#4F4F4F"/>
<circle cx="1096.23" cy="1482.27" r="4" transform="rotate(0.459108 1096.23 1482.27)" fill="#4F4F4F"/>
<circle cx="1126.23" cy="1482.51" r="4" transform="rotate(0.459108 1126.23 1482.51)" fill="#4F4F4F"/>
<circle cx="1156.23" cy="1482.75" r="4" transform="rotate(0.459108 1156.23 1482.75)" fill="#4F4F4F"/>
<circle cx="1186.23" cy="1482.99" r="4" transform="rotate(0.459108 1186.23 1482.99)" fill="#4F4F4F"/>
<circle cx="1216.23" cy="1483.23" r="4" transform="rotate(0.459108 1216.23 1483.23)" fill="#4F4F4F"/>
<circle cx="1246.23" cy="1483.47" r="4" transform="rotate(0.459108 1246.23 1483.47)" fill="#4F4F4F"/>
<circle cx="1276.23" cy="1483.71" r="4" transform="rotate(0.459108 1276.23 1483.71)" fill="#4F4F4F"/>
<circle cx="1065.99" cy="1512.03" r="4" transform="rotate(0.459108 1065.99 1512.03)" fill="#4F4F4F"/>
<circle cx="1095.99" cy="1512.27" r="4" transform="rotate(0.459108 1095.99 1512.27)" fill="#4F4F4F"/>
<circle cx="1125.99" cy="1512.51" r="4" transform="rotate(0.459108 1125.99 1512.51)" fill="#4F4F4F"/>
<circle cx="1155.99" cy="1512.75" r="4" transform="rotate(0.459108 1155.99 1512.75)" fill="#4F4F4F"/>
<circle cx="1185.99" cy="1512.99" r="4" transform="rotate(0.459108 1185.99 1512.99)" fill="#4F4F4F"/>
<circle cx="1215.99" cy="1513.23" r="4" transform="rotate(0.459108 1215.99 1513.23)" fill="#4F4F4F"/>
<circle cx="1245.99" cy="1513.47" r="4" transform="rotate(0.459108 1245.99 1513.47)" fill="#4F4F4F"/>
<circle cx="1275.99" cy="1513.71" r="4" transform="rotate(0.459108 1275.99 1513.71)" fill="#4F4F4F"/>
<circle cx="1065.75" cy="1542.03" r="4" transform="rotate(0.459108 1065.75 1542.03)" fill="#4F4F4F"/>
<circle cx="1095.75" cy="1542.27" r="4" transform="rotate(0.459108 1095.75 1542.27)" fill="#4F4F4F"/>
<circle cx="1125.75" cy="1542.51" r="4" transform="rotate(0.459108 1125.75 1542.51)" fill="#4F4F4F"/>
<circle cx="1155.75" cy="1542.75" r="4" transform="rotate(0.459108 1155.75 1542.75)" fill="#4F4F4F"/>
<circle cx="1185.75" cy="1542.99" r="4" transform="rotate(0.459108 1185.75 1542.99)" fill="#4F4F4F"/>
<circle cx="1215.75" cy="1543.23" r="4" transform="rotate(0.459108 1215.75 1543.23)" fill="#4F4F4F"/>
<circle cx="1245.75" cy="1543.47" r="4" transform="rotate(0.459108 1245.75 1543.47)" fill="#4F4F4F"/>
<circle cx="1275.75" cy="1543.71" r="4" transform="rotate(0.459108 1275.75 1543.71)" fill="#4F4F4F"/>
<circle cx="1065.51" cy="1572.03" r="4" transform="rotate(0.459108 1065.51 1572.03)" fill="#4F4F4F"/>
<circle cx="1095.51" cy="1572.27" r="4" transform="rotate(0.459108 1095.51 1572.27)" fill="#4F4F4F"/>
<circle cx="1125.51" cy="1572.51" r="4" transform="rotate(0.459108 1125.51 1572.51)" fill="#4F4F4F"/>
<circle cx="1155.51" cy="1572.75" r="4" transform="rotate(0.459108 1155.51 1572.75)" fill="#4F4F4F"/>
<circle cx="1185.51" cy="1572.99" r="4" transform="rotate(0.459108 1185.51 1572.99)" fill="#4F4F4F"/>
<circle cx="1215.51" cy="1573.23" r="4" transform="rotate(0.459108 1215.51 1573.23)" fill="#4F4F4F"/>
<circle cx="1245.51" cy="1573.47" r="4" transform="rotate(0.459108 1245.51 1573.47)" fill="#4F4F4F"/>
<circle cx="1275.51" cy="1573.71" r="4" transform="rotate(0.459108 1275.51 1573.71)" fill="#4F4F4F"/>
<circle cx="1065.27" cy="1602.03" r="4" transform="rotate(0.459108 1065.27 1602.03)" fill="#4F4F4F"/>
<circle cx="1095.27" cy="1602.27" r="4" transform="rotate(0.459108 1095.27 1602.27)" fill="#4F4F4F"/>
<circle cx="1125.27" cy="1602.51" r="4" transform="rotate(0.459108 1125.27 1602.51)" fill="#4F4F4F"/>
<circle cx="1155.27" cy="1602.75" r="4" transform="rotate(0.459108 1155.27 1602.75)" fill="#4F4F4F"/>
<circle cx="1185.27" cy="1602.99" r="4" transform="rotate(0.459108 1185.27 1602.99)" fill="#4F4F4F"/>
<circle cx="1215.27" cy="1603.23" r="4" transform="rotate(0.459108 1215.27 1603.23)" fill="#4F4F4F"/>
<circle cx="1245.27" cy="1603.47" r="4" transform="rotate(0.459108 1245.27 1603.47)" fill="#4F4F4F"/>
<circle cx="1275.27" cy="1603.71" r="4" transform="rotate(0.459108 1275.27 1603.71)" fill="#4F4F4F"/>
<circle cx="1065.03" cy="1632.03" r="4" transform="rotate(0.459108 1065.03 1632.03)" fill="#4F4F4F"/>
<circle cx="1095.03" cy="1632.27" r="4" transform="rotate(0.459108 1095.03 1632.27)" fill="#4F4F4F"/>
<circle cx="1125.03" cy="1632.51" r="4" transform="rotate(0.459108 1125.03 1632.51)" fill="#4F4F4F"/>
<circle cx="1155.03" cy="1632.75" r="4" transform="rotate(0.459108 1155.03 1632.75)" fill="#4F4F4F"/>
<circle cx="1185.03" cy="1632.99" r="4" transform="rotate(0.459108 1185.03 1632.99)" fill="#4F4F4F"/>
<circle cx="1215.03" cy="1633.23" r="4" transform="rotate(0.459108 1215.03 1633.23)" fill="#4F4F4F"/>
<circle cx="1245.03" cy="1633.47" r="4" transform="rotate(0.459108 1245.03 1633.47)" fill="#4F4F4F"/>
<circle cx="1275.03" cy="1633.71" r="4" transform="rotate(0.459108 1275.03 1633.71)" fill="#4F4F4F"/>
<circle cx="950.937" cy="1866.88" r="6.83025" transform="rotate(0.459108 950.937 1866.88)" fill="#4F4F4F"/>
<circle cx="1002.16" cy="1867.3" r="6.83025" transform="rotate(0.459108 1002.16 1867.3)" fill="#4F4F4F"/>
<circle cx="1053.39" cy="1867.71" r="6.83025" transform="rotate(0.459108 1053.39 1867.71)" fill="#4F4F4F"/>
<circle cx="1104.61" cy="1868.12" r="6.83025" transform="rotate(0.459108 1104.61 1868.12)" fill="#4F4F4F"/>
<circle cx="1155.84" cy="1868.53" r="6.83025" transform="rotate(0.459108 1155.84 1868.53)" fill="#4F4F4F"/>
<circle cx="1207.06" cy="1868.94" r="6.83025" transform="rotate(0.459108 1207.06 1868.94)" fill="#4F4F4F"/>
<circle cx="1258.29" cy="1869.35" r="6.83025" transform="rotate(0.459108 1258.29 1869.35)" fill="#4F4F4F"/>
<circle cx="950.527" cy="1918.11" r="6.83025" transform="rotate(0.459108 950.527 1918.11)" fill="#4F4F4F"/>
<circle cx="1001.75" cy="1918.52" r="6.83025" transform="rotate(0.459108 1001.75 1918.52)" fill="#4F4F4F"/>
<circle cx="1052.98" cy="1918.93" r="6.83025" transform="rotate(0.459108 1052.98 1918.93)" fill="#4F4F4F"/>
<circle cx="1104.2" cy="1919.34" r="6.83025" transform="rotate(0.459108 1104.2 1919.34)" fill="#4F4F4F"/>
<circle cx="1155.43" cy="1919.75" r="6.83025" transform="rotate(0.459108 1155.43 1919.75)" fill="#4F4F4F"/>
<circle cx="1206.65" cy="1920.16" r="6.83025" transform="rotate(0.459108 1206.65 1920.16)" fill="#4F4F4F"/>
<circle cx="1257.88" cy="1920.57" r="6.83025" transform="rotate(0.459108 1257.88 1920.57)" fill="#4F4F4F"/>
<circle cx="950.117" cy="1969.34" r="6.83025" transform="rotate(0.459108 950.117 1969.34)" fill="#4F4F4F"/>
<circle cx="1001.34" cy="1969.75" r="6.83025" transform="rotate(0.459108 1001.34 1969.75)" fill="#4F4F4F"/>
<circle cx="1052.57" cy="1970.16" r="6.83025" transform="rotate(0.459108 1052.57 1970.16)" fill="#4F4F4F"/>
<circle cx="1103.79" cy="1970.57" r="6.83025" transform="rotate(0.459108 1103.79 1970.57)" fill="#4F4F4F"/>
<circle cx="1155.02" cy="1970.98" r="6.83025" transform="rotate(0.459108 1155.02 1970.98)" fill="#4F4F4F"/>
<circle cx="1206.24" cy="1971.39" r="6.83025" transform="rotate(0.459108 1206.24 1971.39)" fill="#4F4F4F"/>
<circle cx="1257.47" cy="1971.8" r="6.83025" transform="rotate(0.459108 1257.47 1971.8)" fill="#4F4F4F"/>
<circle cx="949.706" cy="2020.56" r="6.83025" transform="rotate(0.459108 949.706 2020.56)" fill="#4F4F4F"/>
<circle cx="1000.93" cy="2020.97" r="6.83025" transform="rotate(0.459108 1000.93 2020.97)" fill="#4F4F4F"/>
<circle cx="1052.16" cy="2021.38" r="6.83025" transform="rotate(0.459108 1052.16 2021.38)" fill="#4F4F4F"/>
<circle cx="1103.38" cy="2021.79" r="6.83025" transform="rotate(0.459108 1103.38 2021.79)" fill="#4F4F4F"/>
<circle cx="1154.61" cy="2022.2" r="6.83025" transform="rotate(0.459108 1154.61 2022.2)" fill="#4F4F4F"/>
<circle cx="1205.83" cy="2022.61" r="6.83025" transform="rotate(0.459108 1205.83 2022.61)" fill="#4F4F4F"/>
<circle cx="1257.06" cy="2023.02" r="6.83025" transform="rotate(0.459108 1257.06 2023.02)" fill="#4F4F4F"/>
<circle cx="949.295" cy="2071.79" r="6.83025" transform="rotate(0.459108 949.295 2071.79)" fill="#4F4F4F"/>
<circle cx="1000.52" cy="2072.2" r="6.83025" transform="rotate(0.459108 1000.52 2072.2)" fill="#4F4F4F"/>
<circle cx="1051.75" cy="2072.61" r="6.83025" transform="rotate(0.459108 1051.75 2072.61)" fill="#4F4F4F"/>
<circle cx="1102.97" cy="2073.02" r="6.83025" transform="rotate(0.459108 1102.97 2073.02)" fill="#4F4F4F"/>
<circle cx="1154.2" cy="2073.43" r="6.83025" transform="rotate(0.459108 1154.2 2073.43)" fill="#4F4F4F"/>
<circle cx="1205.42" cy="2073.84" r="6.83025" transform="rotate(0.459108 1205.42 2073.84)" fill="#4F4F4F"/>
<circle cx="1256.65" cy="2074.25" r="6.83025" transform="rotate(0.459108 1256.65 2074.25)" fill="#4F4F4F"/>
<circle cx="948.885" cy="2123.01" r="6.83025" transform="rotate(0.459108 948.885 2123.01)" fill="#4F4F4F"/>
<circle cx="1000.11" cy="2123.42" r="6.83025" transform="rotate(0.459108 1000.11 2123.42)" fill="#4F4F4F"/>
<circle cx="1051.34" cy="2123.83" r="6.83025" transform="rotate(0.459108 1051.34 2123.83)" fill="#4F4F4F"/>
<circle cx="1102.56" cy="2124.24" r="6.83025" transform="rotate(0.459108 1102.56 2124.24)" fill="#4F4F4F"/>
<circle cx="1153.79" cy="2124.65" r="6.83025" transform="rotate(0.459108 1153.79 2124.65)" fill="#4F4F4F"/>
<circle cx="1205.01" cy="2125.06" r="6.83025" transform="rotate(0.459108 1205.01 2125.06)" fill="#4F4F4F"/>
<circle cx="1256.24" cy="2125.47" r="6.83025" transform="rotate(0.459108 1256.24 2125.47)" fill="#4F4F4F"/>
<circle cx="18.8378" cy="2272.53" r="6.83025" transform="rotate(0.459108 18.8378 2272.53)" fill="#4F4F4F"/>
<circle cx="70.0629" cy="2272.94" r="6.83025" transform="rotate(0.459108 70.0629 2272.94)" fill="#4F4F4F"/>
<circle cx="121.288" cy="2273.35" r="6.83025" transform="rotate(0.459108 121.288 2273.35)" fill="#4F4F4F"/>
<circle cx="172.514" cy="2273.76" r="6.83025" transform="rotate(0.459108 172.514 2273.76)" fill="#4F4F4F"/>
<circle cx="223.739" cy="2274.17" r="6.83025" transform="rotate(0.459108 223.739 2274.17)" fill="#4F4F4F"/>
<circle cx="274.964" cy="2274.58" r="6.83025" transform="rotate(0.459108 274.964 2274.58)" fill="#4F4F4F"/>
<circle cx="326.189" cy="2274.99" r="6.83025" transform="rotate(0.459108 326.189 2274.99)" fill="#4F4F4F"/>
<circle cx="18.4272" cy="2323.75" r="6.83025" transform="rotate(0.459108 18.4272 2323.75)" fill="#4F4F4F"/>
<circle cx="69.6523" cy="2324.16" r="6.83025" transform="rotate(0.459108 69.6523 2324.16)" fill="#4F4F4F"/>
<circle cx="120.878" cy="2324.57" r="6.83025" transform="rotate(0.459108 120.878 2324.57)" fill="#4F4F4F"/>
<circle cx="172.103" cy="2324.98" r="6.83025" transform="rotate(0.459108 172.103 2324.98)" fill="#4F4F4F"/>
<circle cx="223.329" cy="2325.39" r="6.83025" transform="rotate(0.459108 223.329 2325.39)" fill="#4F4F4F"/>
<circle cx="274.554" cy="2325.8" r="6.83025" transform="rotate(0.459108 274.554 2325.8)" fill="#4F4F4F"/>
<circle cx="325.779" cy="2326.21" r="6.83025" transform="rotate(0.459108 325.779 2326.21)" fill="#4F4F4F"/>
<circle cx="18.017" cy="2374.98" r="6.83025" transform="rotate(0.459108 18.017 2374.98)" fill="#4F4F4F"/>
<circle cx="69.2421" cy="2375.39" r="6.83025" transform="rotate(0.459108 69.2421 2375.39)" fill="#4F4F4F"/>
<circle cx="120.468" cy="2375.8" r="6.83025" transform="rotate(0.459108 120.468 2375.8)" fill="#4F4F4F"/>
<circle cx="171.693" cy="2376.21" r="6.83025" transform="rotate(0.459108 171.693 2376.21)" fill="#4F4F4F"/>
<circle cx="222.918" cy="2376.62" r="6.83025" transform="rotate(0.459108 222.918 2376.62)" fill="#4F4F4F"/>
<circle cx="274.143" cy="2377.03" r="6.83025" transform="rotate(0.459108 274.143 2377.03)" fill="#4F4F4F"/>
<circle cx="325.368" cy="2377.44" r="6.83025" transform="rotate(0.459108 325.368 2377.44)" fill="#4F4F4F"/>
<circle cx="17.6063" cy="2426.2" r="6.83025" transform="rotate(0.459108 17.6063 2426.2)" fill="#4F4F4F"/>
<circle cx="68.8315" cy="2426.61" r="6.83025" transform="rotate(0.459108 68.8315 2426.61)" fill="#4F4F4F"/>
<circle cx="120.057" cy="2427.02" r="6.83025" transform="rotate(0.459108 120.057 2427.02)" fill="#4F4F4F"/>
<circle cx="171.282" cy="2427.43" r="6.83025" transform="rotate(0.459108 171.282 2427.43)" fill="#4F4F4F"/>
<circle cx="222.507" cy="2427.84" r="6.83025" transform="rotate(0.459108 222.507 2427.84)" fill="#4F4F4F"/>
<circle cx="273.732" cy="2428.25" r="6.83025" transform="rotate(0.459108 273.732 2428.25)" fill="#4F4F4F"/>
<circle cx="324.958" cy="2428.66" r="6.83025" transform="rotate(0.459108 324.958 2428.66)" fill="#4F4F4F"/>
<circle cx="17.1962" cy="2477.43" r="6.83025" transform="rotate(0.459108 17.1962 2477.43)" fill="#4F4F4F"/>
<circle cx="68.4213" cy="2477.84" r="6.83025" transform="rotate(0.459108 68.4213 2477.84)" fill="#4F4F4F"/>
<circle cx="119.646" cy="2478.25" r="6.83025" transform="rotate(0.459108 119.646 2478.25)" fill="#4F4F4F"/>
<circle cx="170.872" cy="2478.66" r="6.83025" transform="rotate(0.459108 170.872 2478.66)" fill="#4F4F4F"/>
<circle cx="222.097" cy="2479.07" r="6.83025" transform="rotate(0.459108 222.097 2479.07)" fill="#4F4F4F"/>
<circle cx="273.322" cy="2479.48" r="6.83025" transform="rotate(0.459108 273.322 2479.48)" fill="#4F4F4F"/>
<circle cx="324.547" cy="2479.89" r="6.83025" transform="rotate(0.459108 324.547 2479.89)" fill="#4F4F4F"/>
<circle cx="16.7855" cy="2528.65" r="6.83025" transform="rotate(0.459108 16.7855 2528.65)" fill="#4F4F4F"/>
<circle cx="68.0107" cy="2529.06" r="6.83025" transform="rotate(0.459108 68.0107 2529.06)" fill="#4F4F4F"/>
<circle cx="119.236" cy="2529.47" r="6.83025" transform="rotate(0.459108 119.236 2529.47)" fill="#4F4F4F"/>
<circle cx="170.461" cy="2529.88" r="6.83025" transform="rotate(0.459108 170.461 2529.88)" fill="#4F4F4F"/>
<circle cx="221.686" cy="2530.29" r="6.83025" transform="rotate(0.459108 221.686 2530.29)" fill="#4F4F4F"/>
<circle cx="272.912" cy="2530.71" r="6.83025" transform="rotate(0.459108 272.912 2530.71)" fill="#4F4F4F"/>
<circle cx="324.137" cy="2531.12" r="6.83025" transform="rotate(0.459108 324.137 2531.12)" fill="#4F4F4F"/>
<circle cx="18.6127" cy="2837.12" r="6.83025" transform="rotate(0.459108 18.6127 2837.12)" fill="#4F4F4F"/>
<circle cx="69.8378" cy="2837.53" r="6.83025" transform="rotate(0.459108 69.8378 2837.53)" fill="#4F4F4F"/>
<circle cx="121.063" cy="2837.94" r="6.83025" transform="rotate(0.459108 121.063 2837.94)" fill="#4F4F4F"/>
<circle cx="172.288" cy="2838.35" r="6.83025" transform="rotate(0.459108 172.288 2838.35)" fill="#4F4F4F"/>
<circle cx="223.514" cy="2838.76" r="6.83025" transform="rotate(0.459108 223.514 2838.76)" fill="#4F4F4F"/>
<circle cx="274.739" cy="2839.17" r="6.83025" transform="rotate(0.459108 274.739 2839.17)" fill="#4F4F4F"/>
<circle cx="325.964" cy="2839.58" r="6.83025" transform="rotate(0.459108 325.964 2839.58)" fill="#4F4F4F"/>
<circle cx="377.189" cy="2839.99" r="6.83025" transform="rotate(0.459108 377.189 2839.99)" fill="#4F4F4F"/>
<circle cx="18.2021" cy="2888.34" r="6.83025" transform="rotate(0.459108 18.2021 2888.34)" fill="#4F4F4F"/>
<circle cx="69.4272" cy="2888.75" r="6.83025" transform="rotate(0.459108 69.4272 2888.75)" fill="#4F4F4F"/>
<circle cx="120.652" cy="2889.16" r="6.83025" transform="rotate(0.459108 120.652 2889.16)" fill="#4F4F4F"/>
<circle cx="171.878" cy="2889.57" r="6.83025" transform="rotate(0.459108 171.878 2889.57)" fill="#4F4F4F"/>
<circle cx="223.103" cy="2889.98" r="6.83025" transform="rotate(0.459108 223.103 2889.98)" fill="#4F4F4F"/>
<circle cx="274.329" cy="2890.39" r="6.83025" transform="rotate(0.459108 274.329 2890.39)" fill="#4F4F4F"/>
<circle cx="325.554" cy="2890.8" r="6.83025" transform="rotate(0.459108 325.554 2890.8)" fill="#4F4F4F"/>
<circle cx="376.779" cy="2891.21" r="6.83025" transform="rotate(0.459108 376.779 2891.21)" fill="#4F4F4F"/>
<circle cx="17.7919" cy="2939.57" r="6.83025" transform="rotate(0.459108 17.7919 2939.57)" fill="#4F4F4F"/>
<circle cx="69.017" cy="2939.98" r="6.83025" transform="rotate(0.459108 69.017 2939.98)" fill="#4F4F4F"/>
<circle cx="120.242" cy="2940.39" r="6.83025" transform="rotate(0.459108 120.242 2940.39)" fill="#4F4F4F"/>
<circle cx="171.468" cy="2940.8" r="6.83025" transform="rotate(0.459108 171.468 2940.8)" fill="#4F4F4F"/>
<circle cx="222.693" cy="2941.21" r="6.83025" transform="rotate(0.459108 222.693 2941.21)" fill="#4F4F4F"/>
<circle cx="273.918" cy="2941.62" r="6.83025" transform="rotate(0.459108 273.918 2941.62)" fill="#4F4F4F"/>
<circle cx="325.143" cy="2942.03" r="6.83025" transform="rotate(0.459108 325.143 2942.03)" fill="#4F4F4F"/>
<circle cx="376.368" cy="2942.44" r="6.83025" transform="rotate(0.459108 376.368 2942.44)" fill="#4F4F4F"/>
<circle cx="17.3813" cy="2990.79" r="6.83025" transform="rotate(0.459108 17.3813 2990.79)" fill="#4F4F4F"/>
<circle cx="68.6064" cy="2991.2" r="6.83025" transform="rotate(0.459108 68.6064 2991.2)" fill="#4F4F4F"/>
<circle cx="119.831" cy="2991.61" r="6.83025" transform="rotate(0.459108 119.831 2991.61)" fill="#4F4F4F"/>
<circle cx="171.057" cy="2992.02" r="6.83025" transform="rotate(0.459108 171.057 2992.02)" fill="#4F4F4F"/>
<circle cx="222.282" cy="2992.43" r="6.83025" transform="rotate(0.459108 222.282 2992.43)" fill="#4F4F4F"/>
<circle cx="273.507" cy="2992.84" r="6.83025" transform="rotate(0.459108 273.507 2992.84)" fill="#4F4F4F"/>
<circle cx="324.732" cy="2993.25" r="6.83025" transform="rotate(0.459108 324.732 2993.25)" fill="#4F4F4F"/>
<circle cx="375.958" cy="2993.67" r="6.83025" transform="rotate(0.459108 375.958 2993.67)" fill="#4F4F4F"/>
<circle cx="16.9711" cy="3042.02" r="6.83025" transform="rotate(0.459108 16.9711 3042.02)" fill="#4F4F4F"/>
<circle cx="68.1962" cy="3042.43" r="6.83025" transform="rotate(0.459108 68.1962 3042.43)" fill="#4F4F4F"/>
<circle cx="119.421" cy="3042.84" r="6.83025" transform="rotate(0.459108 119.421 3042.84)" fill="#4F4F4F"/>
<circle cx="170.646" cy="3043.25" r="6.83025" transform="rotate(0.459108 170.646 3043.25)" fill="#4F4F4F"/>
<circle cx="221.872" cy="3043.66" r="6.83025" transform="rotate(0.459108 221.872 3043.66)" fill="#4F4F4F"/>
<circle cx="273.097" cy="3044.07" r="6.83025" transform="rotate(0.459108 273.097 3044.07)" fill="#4F4F4F"/>
<circle cx="324.322" cy="3044.48" r="6.83025" transform="rotate(0.459108 324.322 3044.48)" fill="#4F4F4F"/>
<circle cx="375.547" cy="3044.89" r="6.83025" transform="rotate(0.459108 375.547 3044.89)" fill="#4F4F4F"/>
<circle cx="16.5605" cy="3093.24" r="6.83025" transform="rotate(0.459108 16.5605 3093.24)" fill="#4F4F4F"/>
<circle cx="67.7856" cy="3093.65" r="6.83025" transform="rotate(0.459108 67.7856 3093.65)" fill="#4F4F4F"/>
<circle cx="119.011" cy="3094.06" r="6.83025" transform="rotate(0.459108 119.011 3094.06)" fill="#4F4F4F"/>
<circle cx="170.236" cy="3094.47" r="6.83025" transform="rotate(0.459108 170.236 3094.47)" fill="#4F4F4F"/>
<circle cx="221.461" cy="3094.88" r="6.83025" transform="rotate(0.459108 221.461 3094.88)" fill="#4F4F4F"/>
<circle cx="272.686" cy="3095.29" r="6.83025" transform="rotate(0.459108 272.686 3095.29)" fill="#4F4F4F"/>
<circle cx="323.912" cy="3095.71" r="6.83025" transform="rotate(0.459108 323.912 3095.71)" fill="#4F4F4F"/>
<circle cx="375.137" cy="3096.12" r="6.83025" transform="rotate(0.459108 375.137 3096.12)" fill="#4F4F4F"/>
<circle cx="793.937" cy="5374.88" r="6.83025" transform="rotate(0.459108 793.937 5374.88)" fill="#4F4F4F"/>
<circle cx="845.162" cy="5375.3" r="6.83025" transform="rotate(0.459108 845.162 5375.3)" fill="#4F4F4F"/>
<circle cx="896.388" cy="5375.71" r="6.83025" transform="rotate(0.459108 896.388 5375.71)" fill="#4F4F4F"/>
<circle cx="947.613" cy="5376.12" r="6.83025" transform="rotate(0.459108 947.613 5376.12)" fill="#4F4F4F"/>
<circle cx="998.838" cy="5376.53" r="6.83025" transform="rotate(0.459108 998.838 5376.53)" fill="#4F4F4F"/>
<circle cx="1050.06" cy="5376.94" r="6.83025" transform="rotate(0.459108 1050.06 5376.94)" fill="#4F4F4F"/>
<circle cx="1101.29" cy="5377.35" r="6.83025" transform="rotate(0.459108 1101.29 5377.35)" fill="#4F4F4F"/>
<circle cx="1152.51" cy="5377.76" r="6.83025" transform="rotate(0.459108 1152.51 5377.76)" fill="#4F4F4F"/>
<circle cx="1203.74" cy="5378.17" r="6.83025" transform="rotate(0.459108 1203.74 5378.17)" fill="#4F4F4F"/>
<circle cx="1254.96" cy="5378.58" r="6.83025" transform="rotate(0.459108 1254.96 5378.58)" fill="#4F4F4F"/>
<circle cx="793.527" cy="5426.11" r="6.83025" transform="rotate(0.459108 793.527 5426.11)" fill="#4F4F4F"/>
<circle cx="844.752" cy="5426.52" r="6.83025" transform="rotate(0.459108 844.752 5426.52)" fill="#4F4F4F"/>
<circle cx="895.977" cy="5426.93" r="6.83025" transform="rotate(0.459108 895.977 5426.93)" fill="#4F4F4F"/>
<circle cx="947.202" cy="5427.34" r="6.83025" transform="rotate(0.459108 947.202 5427.34)" fill="#4F4F4F"/>
<circle cx="998.427" cy="5427.75" r="6.83025" transform="rotate(0.459108 998.427 5427.75)" fill="#4F4F4F"/>
<circle cx="1049.65" cy="5428.16" r="6.83025" transform="rotate(0.459108 1049.65 5428.16)" fill="#4F4F4F"/>
<circle cx="1100.88" cy="5428.57" r="6.83025" transform="rotate(0.459108 1100.88 5428.57)" fill="#4F4F4F"/>
<circle cx="1152.1" cy="5428.98" r="6.83025" transform="rotate(0.459108 1152.1 5428.98)" fill="#4F4F4F"/>
<circle cx="1203.33" cy="5429.39" r="6.83025" transform="rotate(0.459108 1203.33 5429.39)" fill="#4F4F4F"/>
<circle cx="1254.55" cy="5429.8" r="6.83025" transform="rotate(0.459108 1254.55 5429.8)" fill="#4F4F4F"/>
<circle cx="793.117" cy="5477.33" r="6.83025" transform="rotate(0.459108 793.117 5477.33)" fill="#4F4F4F"/>
<circle cx="844.342" cy="5477.75" r="6.83025" transform="rotate(0.459108 844.342 5477.75)" fill="#4F4F4F"/>
<circle cx="895.567" cy="5478.16" r="6.83025" transform="rotate(0.459108 895.567 5478.16)" fill="#4F4F4F"/>
<circle cx="946.792" cy="5478.57" r="6.83025" transform="rotate(0.459108 946.792 5478.57)" fill="#4F4F4F"/>
<circle cx="998.017" cy="5478.98" r="6.83025" transform="rotate(0.459108 998.017 5478.98)" fill="#4F4F4F"/>
<circle cx="1049.24" cy="5479.39" r="6.83025" transform="rotate(0.459108 1049.24 5479.39)" fill="#4F4F4F"/>
<circle cx="1100.47" cy="5479.8" r="6.83025" transform="rotate(0.459108 1100.47 5479.8)" fill="#4F4F4F"/>
<circle cx="1151.69" cy="5480.21" r="6.83025" transform="rotate(0.459108 1151.69 5480.21)" fill="#4F4F4F"/>
<circle cx="1202.92" cy="5480.62" r="6.83025" transform="rotate(0.459108 1202.92 5480.62)" fill="#4F4F4F"/>
<circle cx="1254.14" cy="5481.03" r="6.83025" transform="rotate(0.459108 1254.14 5481.03)" fill="#4F4F4F"/>
<circle cx="792.706" cy="5528.56" r="6.83025" transform="rotate(0.459108 792.706 5528.56)" fill="#4F4F4F"/>
<circle cx="843.931" cy="5528.97" r="6.83025" transform="rotate(0.459108 843.931 5528.97)" fill="#4F4F4F"/>
<circle cx="895.156" cy="5529.38" r="6.83025" transform="rotate(0.459108 895.156 5529.38)" fill="#4F4F4F"/>
<circle cx="946.381" cy="5529.79" r="6.83025" transform="rotate(0.459108 946.381 5529.79)" fill="#4F4F4F"/>
<circle cx="997.606" cy="5530.2" r="6.83025" transform="rotate(0.459108 997.606 5530.2)" fill="#4F4F4F"/>
<circle cx="1048.83" cy="5530.61" r="6.83025" transform="rotate(0.459108 1048.83 5530.61)" fill="#4F4F4F"/>
<circle cx="1100.06" cy="5531.02" r="6.83025" transform="rotate(0.459108 1100.06 5531.02)" fill="#4F4F4F"/>
<circle cx="1151.28" cy="5531.43" r="6.83025" transform="rotate(0.459108 1151.28 5531.43)" fill="#4F4F4F"/>
<circle cx="1202.51" cy="5531.84" r="6.83025" transform="rotate(0.459108 1202.51 5531.84)" fill="#4F4F4F"/>
<circle cx="1253.73" cy="5532.25" r="6.83025" transform="rotate(0.459108 1253.73 5532.25)" fill="#4F4F4F"/>
<circle cx="792.295" cy="5579.79" r="6.83025" transform="rotate(0.459108 792.295 5579.79)" fill="#4F4F4F"/>
<circle cx="843.52" cy="5580.2" r="6.83025" transform="rotate(0.459108 843.52 5580.2)" fill="#4F4F4F"/>
<circle cx="894.745" cy="5580.61" r="6.83025" transform="rotate(0.459108 894.745 5580.61)" fill="#4F4F4F"/>
<circle cx="945.971" cy="5581.02" r="6.83025" transform="rotate(0.459108 945.971 5581.02)" fill="#4F4F4F"/>
<circle cx="997.196" cy="5581.43" r="6.83025" transform="rotate(0.459108 997.196 5581.43)" fill="#4F4F4F"/>
<circle cx="1048.42" cy="5581.84" r="6.83025" transform="rotate(0.459108 1048.42 5581.84)" fill="#4F4F4F"/>
<circle cx="1099.65" cy="5582.25" r="6.83025" transform="rotate(0.459108 1099.65 5582.25)" fill="#4F4F4F"/>
<circle cx="1150.87" cy="5582.66" r="6.83025" transform="rotate(0.459108 1150.87 5582.66)" fill="#4F4F4F"/>
<circle cx="1202.1" cy="5583.07" r="6.83025" transform="rotate(0.459108 1202.1 5583.07)" fill="#4F4F4F"/>
<circle cx="1253.32" cy="5583.48" r="6.83025" transform="rotate(0.459108 1253.32 5583.48)" fill="#4F4F4F"/>
<circle cx="791.885" cy="5631.01" r="6.83025" transform="rotate(0.459108 791.885 5631.01)" fill="#4F4F4F"/>
<circle cx="843.11" cy="5631.42" r="6.83025" transform="rotate(0.459108 843.11 5631.42)" fill="#4F4F4F"/>
<circle cx="894.335" cy="5631.83" r="6.83025" transform="rotate(0.459108 894.335 5631.83)" fill="#4F4F4F"/>
<circle cx="945.56" cy="5632.24" r="6.83025" transform="rotate(0.459108 945.56 5632.24)" fill="#4F4F4F"/>
<circle cx="996.786" cy="5632.65" r="6.83025" transform="rotate(0.459108 996.786 5632.65)" fill="#4F4F4F"/>
<circle cx="1048.01" cy="5633.06" r="6.83025" transform="rotate(0.459108 1048.01 5633.06)" fill="#4F4F4F"/>
<circle cx="1099.24" cy="5633.47" r="6.83025" transform="rotate(0.459108 1099.24 5633.47)" fill="#4F4F4F"/>
<circle cx="1150.46" cy="5633.88" r="6.83025" transform="rotate(0.459108 1150.46 5633.88)" fill="#4F4F4F"/>
<circle cx="1201.69" cy="5634.29" r="6.83025" transform="rotate(0.459108 1201.69 5634.29)" fill="#4F4F4F"/>
<circle cx="1252.91" cy="5634.71" r="6.83025" transform="rotate(0.459108 1252.91 5634.71)" fill="#4F4F4F"/>
<path d="M775 2562H1320" stroke="#808080" stroke-width="4"/>
<path d="M775 2582H1320" stroke="#808080" stroke-width="4"/>
<path d="M775 2602H1320" stroke="#808080" stroke-width="4"/>
<path d="M775 2622H1320" stroke="#808080" stroke-width="4"/>
<path d="M775 2642H1320" stroke="#808080" stroke-width="4"/>
<path d="M-28 5087H698" stroke="#808080" stroke-width="4"/>
<path d="M-28 5107H698" stroke="#808080" stroke-width="4"/>
<path d="M-28 5047H698" stroke="#808080" stroke-width="4"/>
<path d="M-28 5067H698" stroke="#808080" stroke-width="4"/>
<path d="M1019 2960H1564" stroke="#808080" stroke-width="4"/>
<path d="M1019 3005.75H1564" stroke="#808080" stroke-width="4"/>
<path d="M1019 3051.5H1564" stroke="#808080" stroke-width="4"/>
<path d="M1019 3097.25H1564" stroke="#808080" stroke-width="4"/>
<path d="M1019 3143H1564" stroke="#808080" stroke-width="4"/>
<path opacity="0.68" d="M772 495H516.984H494V262.647C494 262.647 494 136 633 136C772 136 772 262.647 772 262.647V495Z" fill="url(#paint0_linear_177_19)" fill-opacity="0.66"/>
<path d="M38.48 474V293.4H98.336C110.806 293.4 122.459 295.765 133.295 300.495C144.217 305.139 153.806 311.632 162.062 319.974C170.404 328.23 176.897 337.819 181.541 348.741C186.271 359.577 188.636 371.23 188.636 383.7C188.636 396.17 186.271 407.866 181.541 418.788C176.897 429.624 170.404 439.213 162.062 447.555C153.806 455.811 144.217 462.304 133.295 467.034C122.459 471.678 110.806 474 98.336 474H38.48ZM77.18 435.3H98.336C105.302 435.3 111.881 433.967 118.073 431.301C124.265 428.635 129.769 424.937 134.585 420.207C139.401 415.477 143.142 410.016 145.808 403.824C148.56 397.546 149.936 390.838 149.936 383.7C149.936 376.562 148.56 369.897 145.808 363.705C143.142 357.513 139.401 352.052 134.585 347.322C129.855 342.506 124.394 338.765 118.202 336.099C112.01 333.433 105.388 332.1 98.336 332.1H77.18V435.3ZM263.293 477.354C251.425 477.354 240.589 474.301 230.785 468.195C221.067 462.089 213.284 453.876 207.436 443.556C201.674 433.236 198.793 421.841 198.793 409.371C198.793 399.997 200.47 391.225 203.824 383.055C207.178 374.799 211.779 367.575 217.627 361.383C223.561 355.105 230.441 350.203 238.267 346.677C246.093 343.151 254.435 341.388 263.293 341.388C273.613 341.388 283.03 343.667 291.544 348.225C300.144 352.697 307.368 358.803 313.216 366.543C319.15 374.197 323.364 382.84 325.858 392.472C328.352 402.104 328.61 412.037 326.632 422.271H240.589C241.793 425.281 243.384 428.033 245.362 430.527C247.426 432.935 249.92 434.87 252.844 436.332C255.854 437.794 259.337 438.568 263.293 438.654C267.077 438.74 270.56 437.923 273.742 436.203C277.01 434.483 279.848 432.161 282.256 429.237L321.73 438.396C316.484 449.834 308.658 459.208 298.252 466.518C287.846 473.742 276.193 477.354 263.293 477.354ZM239.17 393.891H287.545C286.341 390.193 284.535 386.925 282.127 384.087C279.719 381.249 276.881 379.013 273.613 377.379C270.431 375.745 266.991 374.928 263.293 374.928C259.681 374.928 256.241 375.745 252.973 377.379C249.791 379.013 246.996 381.249 244.588 384.087C242.266 386.925 240.46 390.193 239.17 393.891ZM405.142 477.354C393.274 477.354 382.438 474.301 372.634 468.195C362.916 462.089 355.133 453.876 349.285 443.556C343.523 433.236 340.642 421.841 340.642 409.371C340.642 399.997 342.319 391.225 345.673 383.055C349.027 374.799 353.628 367.575 359.476 361.383C365.41 355.105 372.29 350.203 380.116 346.677C387.942 343.151 396.284 341.388 405.142 341.388C415.462 341.388 424.879 343.667 433.393 348.225C441.993 352.697 449.217 358.803 455.065 366.543C460.999 374.197 465.213 382.84 467.707 392.472C470.201 402.104 470.459 412.037 468.481 422.271H382.438C383.642 425.281 385.233 428.033 387.211 430.527C389.275 432.935 391.769 434.87 394.693 436.332C397.703 437.794 401.186 438.568 405.142 438.654C408.926 438.74 412.409 437.923 415.591 436.203C418.859 434.483 421.697 432.161 424.105 429.237L463.579 438.396C458.333 449.834 450.507 459.208 440.101 466.518C429.695 473.742 418.042 477.354 405.142 477.354ZM381.019 393.891H429.394C428.19 390.193 426.384 386.925 423.976 384.087C421.568 381.249 418.73 379.013 415.462 377.379C412.28 375.745 408.84 374.928 405.142 374.928C401.53 374.928 398.09 375.745 394.822 377.379C391.64 379.013 388.845 381.249 386.437 384.087C384.115 386.925 382.309 390.193 381.019 393.891ZM527.672 538.5H488.972V345H527.672V357.126C531.714 352.568 536.401 348.87 541.733 346.032C547.065 343.108 553.214 341.646 560.18 341.646C569.64 341.646 578.455 343.409 586.625 346.935C594.795 350.461 601.976 355.363 608.168 361.641C614.446 367.833 619.305 375.014 622.745 383.184C626.271 391.354 628.034 400.126 628.034 409.5C628.034 418.874 626.271 427.689 622.745 435.945C619.305 444.201 614.446 451.468 608.168 457.746C601.976 463.938 594.795 468.797 586.625 472.323C578.455 475.849 569.64 477.612 560.18 477.612C553.214 477.612 547.065 476.15 541.733 473.226C536.401 470.302 531.714 466.604 527.672 462.132V538.5ZM559.664 378.798C554.418 378.798 549.602 380.217 545.216 383.055C540.916 385.807 537.476 389.505 534.896 394.149C532.316 398.793 531.026 403.91 531.026 409.5C531.026 415.176 532.316 420.336 534.896 424.98C537.476 429.624 540.916 433.322 545.216 436.074C549.602 438.826 554.418 440.202 559.664 440.202C564.996 440.202 569.855 438.826 574.241 436.074C578.627 433.322 582.11 429.624 584.69 424.98C587.27 420.336 588.56 415.176 588.56 409.5C588.56 403.91 587.27 398.793 584.69 394.149C582.11 389.505 578.627 385.807 574.241 383.055C569.855 380.217 564.996 378.798 559.664 378.798ZM730.168 474H680.116L633.16 345H674.44L705.142 429.624L735.844 345H777.124L730.168 474ZM846.816 477.354C834.948 477.354 824.112 474.301 814.308 468.195C804.59 462.089 796.807 453.876 790.959 443.556C785.197 433.236 782.316 421.841 782.316 409.371C782.316 399.997 783.993 391.225 787.347 383.055C790.701 374.799 795.302 367.575 801.15 361.383C807.084 355.105 813.964 350.203 821.79 346.677C829.616 343.151 837.958 341.388 846.816 341.388C857.136 341.388 866.553 343.667 875.067 348.225C883.667 352.697 890.891 358.803 896.739 366.543C902.673 374.197 906.887 382.84 909.381 392.472C911.875 402.104 912.133 412.037 910.155 422.271H824.112C825.316 425.281 826.907 428.033 828.885 430.527C830.949 432.935 833.443 434.87 836.367 436.332C839.377 437.794 842.86 438.568 846.816 438.654C850.6 438.74 854.083 437.923 857.265 436.203C860.533 434.483 863.371 432.161 865.779 429.237L905.253 438.396C900.007 449.834 892.181 459.208 881.775 466.518C871.369 473.742 859.716 477.354 846.816 477.354ZM822.693 393.891H871.068C869.864 390.193 868.058 386.925 865.65 384.087C863.242 381.249 860.404 379.013 857.136 377.379C853.954 375.745 850.514 374.928 846.816 374.928C843.204 374.928 839.764 375.745 836.496 377.379C833.314 379.013 830.519 381.249 828.111 384.087C825.789 386.925 823.983 390.193 822.693 393.891ZM930.775 474L930.646 345H969.346L969.475 353.127C973.775 349.429 978.677 346.548 984.181 344.484C989.685 342.42 995.49 341.388 1001.6 341.388C1006.24 341.388 1010.97 342.076 1015.79 343.452L1000.56 382.668C997.554 381.292 994.458 380.604 991.276 380.604C987.234 380.604 983.536 381.593 980.182 383.571C976.914 385.463 974.291 388.086 972.313 391.44C970.421 394.708 969.475 398.363 969.475 402.405V474H930.775ZM1065.81 476.322C1059.27 475.72 1052.99 474.301 1046.97 472.065C1040.95 469.829 1035.58 466.776 1030.85 462.906C1026.12 459.036 1022.38 454.306 1019.63 448.716L1052.13 434.784C1052.99 435.73 1054.2 436.934 1055.75 438.396C1057.29 439.772 1059.23 441.019 1061.55 442.137C1063.96 443.255 1066.84 443.814 1070.19 443.814C1072.43 443.814 1074.58 443.599 1076.64 443.169C1078.79 442.653 1080.51 441.793 1081.8 440.589C1083.18 439.385 1083.87 437.708 1083.87 435.558C1083.87 433.15 1082.96 431.344 1081.16 430.14C1079.44 428.85 1077.33 427.947 1074.84 427.431C1072.34 426.829 1070.02 426.356 1067.87 426.012C1060.22 424.808 1052.86 422.4 1045.81 418.788C1038.85 415.09 1033.13 410.317 1028.66 404.469C1024.18 398.535 1021.95 391.612 1021.95 383.7C1021.95 374.842 1024.23 367.188 1028.78 360.738C1033.34 354.288 1039.28 349.343 1046.59 345.903C1053.98 342.377 1061.94 340.614 1070.45 340.614C1080.51 340.614 1089.8 342.678 1098.32 346.806C1106.92 350.934 1113.97 356.868 1119.47 364.608L1089.03 382.668C1088 381.378 1086.71 380.088 1085.16 378.798C1083.7 377.422 1081.98 376.261 1080 375.315C1078.11 374.283 1076.04 373.638 1073.81 373.38C1070.8 373.122 1068.09 373.251 1065.68 373.767C1063.36 374.197 1061.51 375.143 1060.13 376.605C1058.76 377.981 1058.07 380.002 1058.07 382.668C1058.07 385.162 1059.27 386.968 1061.68 388.086C1064.09 389.204 1066.8 390.021 1069.81 390.537C1072.82 391.053 1075.27 391.612 1077.16 392.214C1084.56 394.622 1091.52 397.761 1098.06 401.631C1104.59 405.501 1109.84 410.188 1113.8 415.692C1117.84 421.196 1119.73 427.646 1119.47 435.042C1119.47 443.642 1116.89 451.21 1111.73 457.746C1106.57 464.282 1099.91 469.227 1091.74 472.581C1083.57 475.935 1074.92 477.182 1065.81 476.322ZM1195.27 477.354C1183.4 477.354 1172.56 474.301 1162.76 468.195C1153.04 462.089 1145.26 453.876 1139.41 443.556C1133.65 433.236 1130.77 421.841 1130.77 409.371C1130.77 399.997 1132.44 391.225 1135.8 383.055C1139.15 374.799 1143.75 367.575 1149.6 361.383C1155.54 355.105 1162.42 350.203 1170.24 346.677C1178.07 343.151 1186.41 341.388 1195.27 341.388C1205.59 341.388 1215 343.667 1223.52 348.225C1232.12 352.697 1239.34 358.803 1245.19 366.543C1251.12 374.197 1255.34 382.84 1257.83 392.472C1260.33 402.104 1260.58 412.037 1258.61 422.271H1172.56C1173.77 425.281 1175.36 428.033 1177.34 430.527C1179.4 432.935 1181.89 434.87 1184.82 436.332C1187.83 437.794 1191.31 438.568 1195.27 438.654C1199.05 438.74 1202.53 437.923 1205.72 436.203C1208.98 434.483 1211.82 432.161 1214.23 429.237L1253.7 438.396C1248.46 449.834 1240.63 459.208 1230.23 466.518C1219.82 473.742 1208.17 477.354 1195.27 477.354ZM1171.14 393.891H1219.52C1218.32 390.193 1216.51 386.925 1214.1 384.087C1211.69 381.249 1208.86 379.013 1205.59 377.379C1202.41 375.745 1198.97 374.928 1195.27 374.928C1191.66 374.928 1188.22 375.745 1184.95 377.379C1181.77 379.013 1178.97 381.249 1176.56 384.087C1174.24 386.925 1172.43 390.193 1171.14 393.891Z" fill="#E0E0E0" fill-opacity="0.02"/>
<path d="M38.48 264V83.4H98.336C110.806 83.4 122.459 85.765 133.295 90.495C144.217 95.139 153.806 101.632 162.062 109.974C170.404 118.23 176.897 127.819 181.541 138.741C186.271 149.577 188.636 161.23 188.636 173.7C188.636 186.17 186.271 197.866 181.541 208.788C176.897 219.624 170.404 229.213 162.062 237.555C153.806 245.811 144.217 252.304 133.295 257.034C122.459 261.678 110.806 264 98.336 264H38.48ZM77.18 225.3H98.336C105.302 225.3 111.881 223.967 118.073 221.301C124.265 218.635 129.769 214.937 134.585 210.207C139.401 205.477 143.142 200.016 145.808 193.824C148.56 187.546 149.936 180.838 149.936 173.7C149.936 166.562 148.56 159.897 145.808 153.705C143.142 147.513 139.401 142.052 134.585 137.322C129.855 132.506 124.394 128.765 118.202 126.099C112.01 123.433 105.388 122.1 98.336 122.1H77.18V225.3ZM263.293 267.354C251.425 267.354 240.589 264.301 230.785 258.195C221.067 252.089 213.284 243.876 207.436 233.556C201.674 223.236 198.793 211.841 198.793 199.371C198.793 189.997 200.47 181.225 203.824 173.055C207.178 164.799 211.779 157.575 217.627 151.383C223.561 145.105 230.441 140.203 238.267 136.677C246.093 133.151 254.435 131.388 263.293 131.388C273.613 131.388 283.03 133.667 291.544 138.225C300.144 142.697 307.368 148.803 313.216 156.543C319.15 164.197 323.364 172.84 325.858 182.472C328.352 192.104 328.61 202.037 326.632 212.271H240.589C241.793 215.281 243.384 218.033 245.362 220.527C247.426 222.935 249.92 224.87 252.844 226.332C255.854 227.794 259.337 228.568 263.293 228.654C267.077 228.74 270.56 227.923 273.742 226.203C277.01 224.483 279.848 222.161 282.256 219.237L321.73 228.396C316.484 239.834 308.658 249.208 298.252 256.518C287.846 263.742 276.193 267.354 263.293 267.354ZM239.17 183.891H287.545C286.341 180.193 284.535 176.925 282.127 174.087C279.719 171.249 276.881 169.013 273.613 167.379C270.431 165.745 266.991 164.928 263.293 164.928C259.681 164.928 256.241 165.745 252.973 167.379C249.791 169.013 246.996 171.249 244.588 174.087C242.266 176.925 240.46 180.193 239.17 183.891ZM405.142 267.354C393.274 267.354 382.438 264.301 372.634 258.195C362.916 252.089 355.133 243.876 349.285 233.556C343.523 223.236 340.642 211.841 340.642 199.371C340.642 189.997 342.319 181.225 345.673 173.055C349.027 164.799 353.628 157.575 359.476 151.383C365.41 145.105 372.29 140.203 380.116 136.677C387.942 133.151 396.284 131.388 405.142 131.388C415.462 131.388 424.879 133.667 433.393 138.225C441.993 142.697 449.217 148.803 455.065 156.543C460.999 164.197 465.213 172.84 467.707 182.472C470.201 192.104 470.459 202.037 468.481 212.271H382.438C383.642 215.281 385.233 218.033 387.211 220.527C389.275 222.935 391.769 224.87 394.693 226.332C397.703 227.794 401.186 228.568 405.142 228.654C408.926 228.74 412.409 227.923 415.591 226.203C418.859 224.483 421.697 222.161 424.105 219.237L463.579 228.396C458.333 239.834 450.507 249.208 440.101 256.518C429.695 263.742 418.042 267.354 405.142 267.354ZM381.019 183.891H429.394C428.19 180.193 426.384 176.925 423.976 174.087C421.568 171.249 418.73 169.013 415.462 167.379C412.28 165.745 408.84 164.928 405.142 164.928C401.53 164.928 398.09 165.745 394.822 167.379C391.64 169.013 388.845 171.249 386.437 174.087C384.115 176.925 382.309 180.193 381.019 183.891ZM527.672 328.5H488.972V135H527.672V147.126C531.714 142.568 536.401 138.87 541.733 136.032C547.065 133.108 553.214 131.646 560.18 131.646C569.64 131.646 578.455 133.409 586.625 136.935C594.795 140.461 601.976 145.363 608.168 151.641C614.446 157.833 619.305 165.014 622.745 173.184C626.271 181.354 628.034 190.126 628.034 199.5C628.034 208.874 626.271 217.689 622.745 225.945C619.305 234.201 614.446 241.468 608.168 247.746C601.976 253.938 594.795 258.797 586.625 262.323C578.455 265.849 569.64 267.612 560.18 267.612C553.214 267.612 547.065 266.15 541.733 263.226C536.401 260.302 531.714 256.604 527.672 252.132V328.5ZM559.664 168.798C554.418 168.798 549.602 170.217 545.216 173.055C540.916 175.807 537.476 179.505 534.896 184.149C532.316 188.793 531.026 193.91 531.026 199.5C531.026 205.176 532.316 210.336 534.896 214.98C537.476 219.624 540.916 223.322 545.216 226.074C549.602 228.826 554.418 230.202 559.664 230.202C564.996 230.202 569.855 228.826 574.241 226.074C578.627 223.322 582.11 219.624 584.69 214.98C587.27 210.336 588.56 205.176 588.56 199.5C588.56 193.91 587.27 188.793 584.69 184.149C582.11 179.505 578.627 175.807 574.241 173.055C569.855 170.217 564.996 168.798 559.664 168.798ZM730.168 264H680.116L633.16 135H674.44L705.142 219.624L735.844 135H777.124L730.168 264ZM846.816 267.354C834.948 267.354 824.112 264.301 814.308 258.195C804.59 252.089 796.807 243.876 790.959 233.556C785.197 223.236 782.316 211.841 782.316 199.371C782.316 189.997 783.993 181.225 787.347 173.055C790.701 164.799 795.302 157.575 801.15 151.383C807.084 145.105 813.964 140.203 821.79 136.677C829.616 133.151 837.958 131.388 846.816 131.388C857.136 131.388 866.553 133.667 875.067 138.225C883.667 142.697 890.891 148.803 896.739 156.543C902.673 164.197 906.887 172.84 909.381 182.472C911.875 192.104 912.133 202.037 910.155 212.271H824.112C825.316 215.281 826.907 218.033 828.885 220.527C830.949 222.935 833.443 224.87 836.367 226.332C839.377 227.794 842.86 228.568 846.816 228.654C850.6 228.74 854.083 227.923 857.265 226.203C860.533 224.483 863.371 222.161 865.779 219.237L905.253 228.396C900.007 239.834 892.181 249.208 881.775 256.518C871.369 263.742 859.716 267.354 846.816 267.354ZM822.693 183.891H871.068C869.864 180.193 868.058 176.925 865.65 174.087C863.242 171.249 860.404 169.013 857.136 167.379C853.954 165.745 850.514 164.928 846.816 164.928C843.204 164.928 839.764 165.745 836.496 167.379C833.314 169.013 830.519 171.249 828.111 174.087C825.789 176.925 823.983 180.193 822.693 183.891ZM930.775 264L930.646 135H969.346L969.475 143.127C973.775 139.429 978.677 136.548 984.181 134.484C989.685 132.42 995.49 131.388 1001.6 131.388C1006.24 131.388 1010.97 132.076 1015.79 133.452L1000.56 172.668C997.554 171.292 994.458 170.604 991.276 170.604C987.234 170.604 983.536 171.593 980.182 173.571C976.914 175.463 974.291 178.086 972.313 181.44C970.421 184.708 969.475 188.363 969.475 192.405V264H930.775ZM1065.81 266.322C1059.27 265.72 1052.99 264.301 1046.97 262.065C1040.95 259.829 1035.58 256.776 1030.85 252.906C1026.12 249.036 1022.38 244.306 1019.63 238.716L1052.13 224.784C1052.99 225.73 1054.2 226.934 1055.75 228.396C1057.29 229.772 1059.23 231.019 1061.55 232.137C1063.96 233.255 1066.84 233.814 1070.19 233.814C1072.43 233.814 1074.58 233.599 1076.64 233.169C1078.79 232.653 1080.51 231.793 1081.8 230.589C1083.18 229.385 1083.87 227.708 1083.87 225.558C1083.87 223.15 1082.96 221.344 1081.16 220.14C1079.44 218.85 1077.33 217.947 1074.84 217.431C1072.34 216.829 1070.02 216.356 1067.87 216.012C1060.22 214.808 1052.86 212.4 1045.81 208.788C1038.85 205.09 1033.13 200.317 1028.66 194.469C1024.18 188.535 1021.95 181.612 1021.95 173.7C1021.95 164.842 1024.23 157.188 1028.78 150.738C1033.34 144.288 1039.28 139.343 1046.59 135.903C1053.98 132.377 1061.94 130.614 1070.45 130.614C1080.51 130.614 1089.8 132.678 1098.32 136.806C1106.92 140.934 1113.97 146.868 1119.47 154.608L1089.03 172.668C1088 171.378 1086.71 170.088 1085.16 168.798C1083.7 167.422 1081.98 166.261 1080 165.315C1078.11 164.283 1076.04 163.638 1073.81 163.38C1070.8 163.122 1068.09 163.251 1065.68 163.767C1063.36 164.197 1061.51 165.143 1060.13 166.605C1058.76 167.981 1058.07 170.002 1058.07 172.668C1058.07 175.162 1059.27 176.968 1061.68 178.086C1064.09 179.204 1066.8 180.021 1069.81 180.537C1072.82 181.053 1075.27 181.612 1077.16 182.214C1084.56 184.622 1091.52 187.761 1098.06 191.631C1104.59 195.501 1109.84 200.188 1113.8 205.692C1117.84 211.196 1119.73 217.646 1119.47 225.042C1119.47 233.642 1116.89 241.21 1111.73 247.746C1106.57 254.282 1099.91 259.227 1091.74 262.581C1083.57 265.935 1074.92 267.182 1065.81 266.322ZM1195.27 267.354C1183.4 267.354 1172.56 264.301 1162.76 258.195C1153.04 252.089 1145.26 243.876 1139.41 233.556C1133.65 223.236 1130.77 211.841 1130.77 199.371C1130.77 189.997 1132.44 181.225 1135.8 173.055C1139.15 164.799 1143.75 157.575 1149.6 151.383C1155.54 145.105 1162.42 140.203 1170.24 136.677C1178.07 133.151 1186.41 131.388 1195.27 131.388C1205.59 131.388 1215 133.667 1223.52 138.225C1232.12 142.697 1239.34 148.803 1245.19 156.543C1251.12 164.197 1255.34 172.84 1257.83 182.472C1260.33 192.104 1260.58 202.037 1258.61 212.271H1172.56C1173.77 215.281 1175.36 218.033 1177.34 220.527C1179.4 222.935 1181.89 224.87 1184.82 226.332C1187.83 227.794 1191.31 228.568 1195.27 228.654C1199.05 228.74 1202.53 227.923 1205.72 226.203C1208.98 224.483 1211.82 222.161 1214.23 219.237L1253.7 228.396C1248.46 239.834 1240.63 249.208 1230.23 256.518C1219.82 263.742 1208.17 267.354 1195.27 267.354ZM1171.14 183.891H1219.52C1218.32 180.193 1216.51 176.925 1214.1 174.087C1211.69 171.249 1208.86 169.013 1205.59 167.379C1202.41 165.745 1198.97 164.928 1195.27 164.928C1191.66 164.928 1188.22 165.745 1184.95 167.379C1181.77 169.013 1178.97 171.249 1176.56 174.087C1174.24 176.925 1172.43 180.193 1171.14 183.891Z" fill="#E0E0E0" fill-opacity="0.02"/>
<path d="M38.48 684V503.4H98.336C110.806 503.4 122.459 505.765 133.295 510.495C144.217 515.139 153.806 521.632 162.062 529.974C170.404 538.23 176.897 547.819 181.541 558.741C186.271 569.577 188.636 581.23 188.636 593.7C188.636 606.17 186.271 617.866 181.541 628.788C176.897 639.624 170.404 649.213 162.062 657.555C153.806 665.811 144.217 672.304 133.295 677.034C122.459 681.678 110.806 684 98.336 684H38.48ZM77.18 645.3H98.336C105.302 645.3 111.881 643.967 118.073 641.301C124.265 638.635 129.769 634.937 134.585 630.207C139.401 625.477 143.142 620.016 145.808 613.824C148.56 607.546 149.936 600.838 149.936 593.7C149.936 586.562 148.56 579.897 145.808 573.705C143.142 567.513 139.401 562.052 134.585 557.322C129.855 552.506 124.394 548.765 118.202 546.099C112.01 543.433 105.388 542.1 98.336 542.1H77.18V645.3ZM263.293 687.354C251.425 687.354 240.589 684.301 230.785 678.195C221.067 672.089 213.284 663.876 207.436 653.556C201.674 643.236 198.793 631.841 198.793 619.371C198.793 609.997 200.47 601.225 203.824 593.055C207.178 584.799 211.779 577.575 217.627 571.383C223.561 565.105 230.441 560.203 238.267 556.677C246.093 553.151 254.435 551.388 263.293 551.388C273.613 551.388 283.03 553.667 291.544 558.225C300.144 562.697 307.368 568.803 313.216 576.543C319.15 584.197 323.364 592.84 325.858 602.472C328.352 612.104 328.61 622.037 326.632 632.271H240.589C241.793 635.281 243.384 638.033 245.362 640.527C247.426 642.935 249.92 644.87 252.844 646.332C255.854 647.794 259.337 648.568 263.293 648.654C267.077 648.74 270.56 647.923 273.742 646.203C277.01 644.483 279.848 642.161 282.256 639.237L321.73 648.396C316.484 659.834 308.658 669.208 298.252 676.518C287.846 683.742 276.193 687.354 263.293 687.354ZM239.17 603.891H287.545C286.341 600.193 284.535 596.925 282.127 594.087C279.719 591.249 276.881 589.013 273.613 587.379C270.431 585.745 266.991 584.928 263.293 584.928C259.681 584.928 256.241 585.745 252.973 587.379C249.791 589.013 246.996 591.249 244.588 594.087C242.266 596.925 240.46 600.193 239.17 603.891ZM405.142 687.354C393.274 687.354 382.438 684.301 372.634 678.195C362.916 672.089 355.133 663.876 349.285 653.556C343.523 643.236 340.642 631.841 340.642 619.371C340.642 609.997 342.319 601.225 345.673 593.055C349.027 584.799 353.628 577.575 359.476 571.383C365.41 565.105 372.29 560.203 380.116 556.677C387.942 553.151 396.284 551.388 405.142 551.388C415.462 551.388 424.879 553.667 433.393 558.225C441.993 562.697 449.217 568.803 455.065 576.543C460.999 584.197 465.213 592.84 467.707 602.472C470.201 612.104 470.459 622.037 468.481 632.271H382.438C383.642 635.281 385.233 638.033 387.211 640.527C389.275 642.935 391.769 644.87 394.693 646.332C397.703 647.794 401.186 648.568 405.142 648.654C408.926 648.74 412.409 647.923 415.591 646.203C418.859 644.483 421.697 642.161 424.105 639.237L463.579 648.396C458.333 659.834 450.507 669.208 440.101 676.518C429.695 683.742 418.042 687.354 405.142 687.354ZM381.019 603.891H429.394C428.19 600.193 426.384 596.925 423.976 594.087C421.568 591.249 418.73 589.013 415.462 587.379C412.28 585.745 408.84 584.928 405.142 584.928C401.53 584.928 398.09 585.745 394.822 587.379C391.64 589.013 388.845 591.249 386.437 594.087C384.115 596.925 382.309 600.193 381.019 603.891ZM527.672 748.5H488.972V555H527.672V567.126C531.714 562.568 536.401 558.87 541.733 556.032C547.065 553.108 553.214 551.646 560.18 551.646C569.64 551.646 578.455 553.409 586.625 556.935C594.795 560.461 601.976 565.363 608.168 571.641C614.446 577.833 619.305 585.014 622.745 593.184C626.271 601.354 628.034 610.126 628.034 619.5C628.034 628.874 626.271 637.689 622.745 645.945C619.305 654.201 614.446 661.468 608.168 667.746C601.976 673.938 594.795 678.797 586.625 682.323C578.455 685.849 569.64 687.612 560.18 687.612C553.214 687.612 547.065 686.15 541.733 683.226C536.401 680.302 531.714 676.604 527.672 672.132V748.5ZM559.664 588.798C554.418 588.798 549.602 590.217 545.216 593.055C540.916 595.807 537.476 599.505 534.896 604.149C532.316 608.793 531.026 613.91 531.026 619.5C531.026 625.176 532.316 630.336 534.896 634.98C537.476 639.624 540.916 643.322 545.216 646.074C549.602 648.826 554.418 650.202 559.664 650.202C564.996 650.202 569.855 648.826 574.241 646.074C578.627 643.322 582.11 639.624 584.69 634.98C587.27 630.336 588.56 625.176 588.56 619.5C588.56 613.91 587.27 608.793 584.69 604.149C582.11 599.505 578.627 595.807 574.241 593.055C569.855 590.217 564.996 588.798 559.664 588.798ZM730.168 684H680.116L633.16 555H674.44L705.142 639.624L735.844 555H777.124L730.168 684ZM846.816 687.354C834.948 687.354 824.112 684.301 814.308 678.195C804.59 672.089 796.807 663.876 790.959 653.556C785.197 643.236 782.316 631.841 782.316 619.371C782.316 609.997 783.993 601.225 787.347 593.055C790.701 584.799 795.302 577.575 801.15 571.383C807.084 565.105 813.964 560.203 821.79 556.677C829.616 553.151 837.958 551.388 846.816 551.388C857.136 551.388 866.553 553.667 875.067 558.225C883.667 562.697 890.891 568.803 896.739 576.543C902.673 584.197 906.887 592.84 909.381 602.472C911.875 612.104 912.133 622.037 910.155 632.271H824.112C825.316 635.281 826.907 638.033 828.885 640.527C830.949 642.935 833.443 644.87 836.367 646.332C839.377 647.794 842.86 648.568 846.816 648.654C850.6 648.74 854.083 647.923 857.265 646.203C860.533 644.483 863.371 642.161 865.779 639.237L905.253 648.396C900.007 659.834 892.181 669.208 881.775 676.518C871.369 683.742 859.716 687.354 846.816 687.354ZM822.693 603.891H871.068C869.864 600.193 868.058 596.925 865.65 594.087C863.242 591.249 860.404 589.013 857.136 587.379C853.954 585.745 850.514 584.928 846.816 584.928C843.204 584.928 839.764 585.745 836.496 587.379C833.314 589.013 830.519 591.249 828.111 594.087C825.789 596.925 823.983 600.193 822.693 603.891ZM930.775 684L930.646 555H969.346L969.475 563.127C973.775 559.429 978.677 556.548 984.181 554.484C989.685 552.42 995.49 551.388 1001.6 551.388C1006.24 551.388 1010.97 552.076 1015.79 553.452L1000.56 592.668C997.554 591.292 994.458 590.604 991.276 590.604C987.234 590.604 983.536 591.593 980.182 593.571C976.914 595.463 974.291 598.086 972.313 601.44C970.421 604.708 969.475 608.363 969.475 612.405V684H930.775ZM1065.81 686.322C1059.27 685.72 1052.99 684.301 1046.97 682.065C1040.95 679.829 1035.58 676.776 1030.85 672.906C1026.12 669.036 1022.38 664.306 1019.63 658.716L1052.13 644.784C1052.99 645.73 1054.2 646.934 1055.75 648.396C1057.29 649.772 1059.23 651.019 1061.55 652.137C1063.96 653.255 1066.84 653.814 1070.19 653.814C1072.43 653.814 1074.58 653.599 1076.64 653.169C1078.79 652.653 1080.51 651.793 1081.8 650.589C1083.18 649.385 1083.87 647.708 1083.87 645.558C1083.87 643.15 1082.96 641.344 1081.16 640.14C1079.44 638.85 1077.33 637.947 1074.84 637.431C1072.34 636.829 1070.02 636.356 1067.87 636.012C1060.22 634.808 1052.86 632.4 1045.81 628.788C1038.85 625.09 1033.13 620.317 1028.66 614.469C1024.18 608.535 1021.95 601.612 1021.95 593.7C1021.95 584.842 1024.23 577.188 1028.78 570.738C1033.34 564.288 1039.28 559.343 1046.59 555.903C1053.98 552.377 1061.94 550.614 1070.45 550.614C1080.51 550.614 1089.8 552.678 1098.32 556.806C1106.92 560.934 1113.97 566.868 1119.47 574.608L1089.03 592.668C1088 591.378 1086.71 590.088 1085.16 588.798C1083.7 587.422 1081.98 586.261 1080 585.315C1078.11 584.283 1076.04 583.638 1073.81 583.38C1070.8 583.122 1068.09 583.251 1065.68 583.767C1063.36 584.197 1061.51 585.143 1060.13 586.605C1058.76 587.981 1058.07 590.002 1058.07 592.668C1058.07 595.162 1059.27 596.968 1061.68 598.086C1064.09 599.204 1066.8 600.021 1069.81 600.537C1072.82 601.053 1075.27 601.612 1077.16 602.214C1084.56 604.622 1091.52 607.761 1098.06 611.631C1104.59 615.501 1109.84 620.188 1113.8 625.692C1117.84 631.196 1119.73 637.646 1119.47 645.042C1119.47 653.642 1116.89 661.21 1111.73 667.746C1106.57 674.282 1099.91 679.227 1091.74 682.581C1083.57 685.935 1074.92 687.182 1065.81 686.322ZM1195.27 687.354C1183.4 687.354 1172.56 684.301 1162.76 678.195C1153.04 672.089 1145.26 663.876 1139.41 653.556C1133.65 643.236 1130.77 631.841 1130.77 619.371C1130.77 609.997 1132.44 601.225 1135.8 593.055C1139.15 584.799 1143.75 577.575 1149.6 571.383C1155.54 565.105 1162.42 560.203 1170.24 556.677C1178.07 553.151 1186.41 551.388 1195.27 551.388C1205.59 551.388 1215 553.667 1223.52 558.225C1232.12 562.697 1239.34 568.803 1245.19 576.543C1251.12 584.197 1255.34 592.84 1257.83 602.472C1260.33 612.104 1260.58 622.037 1258.61 632.271H1172.56C1173.77 635.281 1175.36 638.033 1177.34 640.527C1179.4 642.935 1181.89 644.87 1184.82 646.332C1187.83 647.794 1191.31 648.568 1195.27 648.654C1199.05 648.74 1202.53 647.923 1205.72 646.203C1208.98 644.483 1211.82 642.161 1214.23 639.237L1253.7 648.396C1248.46 659.834 1240.63 669.208 1230.23 676.518C1219.82 683.742 1208.17 687.354 1195.27 687.354ZM1171.14 603.891H1219.52C1218.32 600.193 1216.51 596.925 1214.1 594.087C1211.69 591.249 1208.86 589.013 1205.59 587.379C1202.41 585.745 1198.97 584.928 1195.27 584.928C1191.66 584.928 1188.22 585.745 1184.95 587.379C1181.77 589.013 1178.97 591.249 1176.56 594.087C1174.24 596.925 1172.43 600.193 1171.14 603.891Z" fill="#E0E0E0" fill-opacity="0.02"/>
<rect x="-8" y="637" width="1290" height="142" fill="url(#paint1_linear_177_19)"/>
<path d="M1163.51 125L1050.99 125L974 199.724V311.811L1050.99 386.535L1163.51 386.535L1240.5 311.811V199.724L1163.51 125Z" fill="url(#paint2_linear_177_19)" fill-opacity="0.58"/>
<path d="M1158.51 480L1045.99 480L969 554.724V666.811L1045.99 741.535H1158.51L1235.5 666.811V554.724L1158.51 480Z" stroke="#FCFCFC"/>
<path d="M1143.51 469L1030.99 469L954 543.724V655.811L1030.99 730.535H1143.51L1220.5 655.811V543.724L1143.51 469Z" stroke="#FCFCFC"/>
<path d="M322.508 2206H209.988L133 2280.72L133 2392.81L209.988 2467.54H322.508L399.496 2392.81L399.496 2280.72L322.508 2206Z" fill="url(#paint3_linear_177_19)" fill-opacity="0.58"/>
<path d="M545.508 2817H432.988L356 2891.72L356 3003.81L432.988 3078.54H545.508L622.496 3003.81V2891.72L545.508 2817Z" fill="url(#paint4_linear_177_19)" fill-opacity="0.58"/>
<path d="M813.508 1366H700.988L624 1440.72V1552.81L700.988 1627.54H813.508L890.496 1552.81V1440.72L813.508 1366Z" fill="url(#paint5_linear_177_19)" fill-opacity="0.58"/>
<path opacity="0.68" d="M474.947 724.664C685.294 678.518 769.452 559.285 798.087 416.524C682.171 407.079 473.083 581.241 474.947 724.664Z" fill="url(#paint6_linear_177_19)"/>
<path opacity="0.68" d="M774.947 2344.66C985.294 2298.52 1069.45 2179.29 1098.09 2036.52C982.171 2027.08 773.083 2201.24 774.947 2344.66Z" fill="url(#paint7_linear_177_19)"/>
<path opacity="0.68" d="M412.947 1283.66C623.294 1237.52 707.452 1118.29 736.087 975.525C620.171 966.079 411.083 1140.24 412.947 1283.66Z" fill="url(#paint8_linear_177_19)"/>
<path opacity="0.68" d="M935.947 3185.66C1146.29 3139.52 1230.45 3020.29 1259.09 2877.52C1143.17 2868.08 934.083 3042.24 935.947 3185.66Z" fill="url(#paint9_linear_177_19)"/>
<path d="M1289.89 698.5V461H1219.39C1219.39 461 1131.89 469.5 1094.89 519C1044.5 586.408 1044.09 686.747 1113.39 734.5C1161.14 767.406 1289.89 756.493 1289.89 698.5Z" fill="url(#paint10_linear_177_19)"/>
<path d="M875.598 2030.95L743 1833.91L801.489 1794.55C801.489 1794.55 878.827 1752.75 937.16 1773.16C1016.6 1800.95 1072.96 1883.96 1042.13 1962.27C1020.88 2016.23 907.976 2079.06 875.598 2030.95Z" fill="url(#paint11_linear_177_19)"/>
<ellipse cx="171.5" cy="551" rx="139.5" ry="135" fill="url(#paint12_linear_177_19)"/>
<path d="M160.5 278C160.5 352.267 98.2832 412.5 21.5 412.5C-55.2832 412.5 -117.5 352.267 -117.5 278C-117.5 203.733 -55.2832 143.5 21.5 143.5C98.2832 143.5 160.5 203.733 160.5 278Z" stroke="white"/>
<path d="M170.5 278C170.5 352.267 108.283 412.5 31.5 412.5C-45.2832 412.5 -107.5 352.267 -107.5 278C-107.5 203.733 -45.2832 143.5 31.5 143.5C108.283 143.5 170.5 203.733 170.5 278Z" stroke="white"/>
<ellipse cx="182.5" cy="1913" rx="139.5" ry="135" fill="url(#paint13_linear_177_19)"/>
<ellipse cx="1219.5" cy="3377" rx="139.5" ry="135" fill="url(#paint14_linear_177_19)"/>
<ellipse cx="1066.5" cy="1033" rx="139.5" ry="135" fill="url(#paint15_linear_177_19)"/>
<ellipse cx="179.5" cy="991" rx="139.5" ry="135" fill="url(#paint16_linear_177_19)"/>
<path opacity="0.68" d="M199.008 217.518C162.233 255.492 75.7637 270.815 75.7637 270.815C75.7637 270.815 162.36 285.162 199.457 322.718C236.555 360.275 251.442 448.668 251.442 448.668C251.442 448.668 265.573 360.111 302.348 322.137C339.123 284.163 425.592 268.84 425.592 268.84C425.592 268.84 338.996 254.494 301.899 216.937C264.801 179.381 249.914 90.9877 249.914 90.9877C249.914 90.9877 235.783 179.544 199.008 217.518Z" fill="url(#paint17_linear_177_19)"/>
<path opacity="0.68" d="M1169.01 127.518C1132.23 165.492 1045.76 180.815 1045.76 180.815C1045.76 180.815 1132.36 195.162 1169.46 232.718C1206.55 270.275 1221.44 358.668 1221.44 358.668C1221.44 358.668 1235.57 270.111 1272.35 232.137C1309.12 194.163 1395.59 178.84 1395.59 178.84C1395.59 178.84 1309 164.494 1271.9 126.937C1234.8 89.3805 1219.91 0.987696 1219.91 0.987696C1219.91 0.987696 1205.78 89.5444 1169.01 127.518Z" stroke="white"/>
<path opacity="0.68" d="M1155.01 127.518C1118.23 165.492 1031.76 180.815 1031.76 180.815C1031.76 180.815 1118.36 195.162 1155.46 232.718C1192.55 270.275 1207.44 358.668 1207.44 358.668C1207.44 358.668 1221.57 270.111 1258.35 232.137C1295.12 194.163 1381.59 178.84 1381.59 178.84C1381.59 178.84 1295 164.494 1257.9 126.937C1220.8 89.3805 1205.91 0.987696 1205.91 0.987696C1205.91 0.987696 1191.78 89.5444 1155.01 127.518Z" stroke="white"/>
<path opacity="0.68" d="M1200.01 1889.52C1163.23 1927.49 1076.76 1942.82 1076.76 1942.82C1076.76 1942.82 1163.36 1957.16 1200.46 1994.72C1237.55 2032.27 1252.44 2120.67 1252.44 2120.67C1252.44 2120.67 1266.57 2032.11 1303.35 1994.14C1340.12 1956.16 1426.59 1940.84 1426.59 1940.84C1426.59 1940.84 1340 1926.49 1302.9 1888.94C1265.8 1851.38 1250.91 1762.99 1250.91 1762.99C1250.91 1762.99 1236.78 1851.54 1200.01 1889.52Z" fill="url(#paint18_linear_177_19)"/>
<path opacity="0.68" d="M10.0081 2502.52C-26.7669 2540.49 -113.236 2555.82 -113.236 2555.82C-113.236 2555.82 -26.6402 2570.16 10.4573 2607.72C47.5549 2645.28 62.4418 2733.67 62.4418 2733.67C62.4418 2733.67 76.5732 2645.11 113.348 2607.14C150.123 2569.16 236.592 2553.84 236.592 2553.84C236.592 2553.84 149.996 2539.49 112.899 2501.94C75.8013 2464.38 60.9144 2375.99 60.9144 2375.99C60.9144 2375.99 46.7831 2464.54 10.0081 2502.52Z" fill="url(#paint19_linear_177_19)"/>
<path opacity="0.68" d="M62.0081 1429.52C25.2331 1467.49 -61.2363 1482.82 -61.2363 1482.82C-61.2363 1482.82 25.3598 1497.16 62.4573 1534.72C99.5549 1572.27 114.442 1660.67 114.442 1660.67C114.442 1660.67 128.573 1572.11 165.348 1534.14C202.123 1496.16 288.592 1480.84 288.592 1480.84C288.592 1480.84 201.996 1466.49 164.899 1428.94C127.801 1391.38 112.914 1302.99 112.914 1302.99C112.914 1302.99 98.7831 1391.54 62.0081 1429.52Z" fill="url(#paint20_linear_177_19)"/>
<path opacity="0.68" d="M697.008 3315.52C660.233 3353.49 573.764 3368.82 573.764 3368.82C573.764 3368.82 660.36 3383.16 697.457 3420.72C734.555 3458.27 749.442 3546.67 749.442 3546.67C749.442 3546.67 763.573 3458.11 800.348 3420.14C837.123 3382.16 923.592 3366.84 923.592 3366.84C923.592 3366.84 836.996 3352.49 799.899 3314.94C762.801 3277.38 747.914 3188.99 747.914 3188.99C747.914 3188.99 733.783 3277.54 697.008 3315.52Z" fill="url(#paint21_linear_177_19)"/>
<path opacity="0.68" d="M1287 2848H1031.98H1009V2615.65C1009 2615.65 1009 2489 1148 2489C1287 2489 1287 2615.65 1287 2615.65V2848Z" fill="url(#paint22_linear_177_19)" fill-opacity="0.66"/>
<path opacity="0.68" d="M649 1761H393.984H371V1528.65C371 1528.65 371 1402 510 1402C649 1402 649 1528.65 649 1528.65V1761Z" fill="url(#paint23_linear_177_19)" fill-opacity="0.66"/>
<path opacity="0.68" d="M311 3601H55.9843H33V3368.65C33 3368.65 32.9997 3242 172 3242C311 3242 311 3368.65 311 3368.65V3601Z" fill="url(#paint24_linear_177_19)" fill-opacity="0.66"/>
<path d="M770 1292H1315" stroke="#4F4F4F" stroke-width="4"/>
<path d="M770 1312H1315" stroke="#4F4F4F" stroke-width="4"/>
<path d="M770 1332H1315" stroke="#4F4F4F" stroke-width="4"/>
<path d="M770 1352H1315" stroke="#4F4F4F" stroke-width="4"/>
<path d="M770 1372H1315" stroke="#4F4F4F" stroke-width="4"/>
<path d="M383.232 3714.23C382.256 3715.21 382.256 3716.79 383.232 3717.77L399.142 3733.68C400.118 3734.65 401.701 3734.65 402.678 3733.68C403.654 3732.7 403.654 3731.12 402.678 3730.14L388.536 3716L402.678 3701.86C403.654 3700.88 403.654 3699.3 402.678 3698.32C401.701 3697.35 400.118 3697.35 399.142 3698.32L383.232 3714.23ZM385 3718.5H389.988V3713.5H385V3718.5ZM399.965 3718.5H409.942V3713.5H399.965V3718.5ZM419.919 3718.5H429.895V3713.5H419.919V3718.5ZM439.872 3718.5H449.849V3713.5H439.872V3718.5ZM459.826 3718.5H469.802V3713.5H459.826V3718.5ZM479.779 3718.5H489.756V3713.5H479.779V3718.5ZM499.733 3718.5H509.709V3713.5H499.733V3718.5ZM519.686 3718.5H529.663V3713.5H519.686V3718.5ZM539.64 3718.5H549.616V3713.5H539.64V3718.5ZM559.593 3718.5H569.57V3713.5H559.593V3718.5ZM579.547 3718.5H589.523V3713.5H579.547V3718.5ZM599.5 3718.5H609.477V3713.5H599.5V3718.5ZM619.454 3718.5H629.43V3713.5H619.454V3718.5ZM639.407 3718.5H649.384V3713.5H639.407V3718.5ZM659.36 3718.5H669.337V3713.5H659.36V3718.5ZM679.314 3718.5H689.291V3713.5H679.314V3718.5ZM699.267 3718.5H709.244V3713.5H699.267V3718.5ZM719.221 3718.5H729.198V3713.5H719.221V3718.5ZM739.174 3718.5H749.151V3713.5H739.174V3718.5ZM759.128 3718.5H769.105V3713.5H759.128V3718.5ZM779.081 3718.5H789.058V3713.5H779.081V3718.5ZM799.035 3718.5H809.012V3713.5H799.035V3718.5ZM818.988 3718.5H828.965V3713.5H818.988V3718.5ZM838.942 3718.5H848.919V3713.5H838.942V3718.5ZM858.895 3718.5H868.872V3713.5H858.895V3718.5ZM878.849 3718.5H888.826V3713.5H878.849V3718.5ZM898.802 3718.5H908.779V3713.5H898.802V3718.5ZM918.756 3718.5H928.733V3713.5H918.756V3718.5ZM938.709 3718.5H948.686V3713.5H938.709V3718.5ZM958.663 3718.5H968.64V3713.5H958.663V3718.5ZM978.616 3718.5H988.593V3713.5H978.616V3718.5ZM998.57 3718.5H1008.55V3713.5H998.57V3718.5ZM1018.52 3718.5H1028.5V3713.5H1018.52V3718.5ZM1038.48 3718.5H1048.45V3713.5H1038.48V3718.5ZM1058.43 3718.5H1068.41V3713.5H1058.43V3718.5ZM1078.38 3718.5H1088.36V3713.5H1078.38V3718.5ZM1098.34 3718.5H1108.31V3713.5H1098.34V3718.5ZM1118.29 3718.5H1128.27V3713.5H1118.29V3718.5ZM1138.24 3718.5H1148.22V3713.5H1138.24V3718.5ZM1158.2 3718.5H1168.17V3713.5H1158.2V3718.5ZM1178.15 3718.5H1188.13V3713.5H1178.15V3718.5ZM1198.1 3718.5H1208.08V3713.5H1198.1V3718.5ZM1218.06 3718.5H1228.03V3713.5H1218.06V3718.5ZM1238.01 3718.5H1243V3713.5H1238.01V3718.5Z" fill="#7A7A7A"/>
<path d="M620.232 4357.23C619.256 4358.21 619.256 4359.79 620.232 4360.77L636.142 4376.68C637.118 4377.65 638.701 4377.65 639.678 4376.68C640.654 4375.7 640.654 4374.12 639.678 4373.14L625.536 4359L639.678 4344.86C640.654 4343.88 640.654 4342.3 639.678 4341.32C638.701 4340.35 637.118 4340.35 636.142 4341.32L620.232 4357.23ZM622 4361.5H626.988V4356.5H622V4361.5ZM636.965 4361.5H646.942V4356.5H636.965V4361.5ZM656.919 4361.5H666.895V4356.5H656.919V4361.5ZM676.872 4361.5H686.849V4356.5H676.872V4361.5ZM696.826 4361.5H706.802V4356.5H696.826V4361.5ZM716.779 4361.5H726.756V4356.5H716.779V4361.5ZM736.733 4361.5H746.709V4356.5H736.733V4361.5ZM756.686 4361.5H766.663V4356.5H756.686V4361.5ZM776.64 4361.5H786.616V4356.5H776.64V4361.5ZM796.593 4361.5H806.57V4356.5H796.593V4361.5ZM816.547 4361.5H826.523V4356.5H816.547V4361.5ZM836.5 4361.5H846.477V4356.5H836.5V4361.5ZM856.454 4361.5H866.43V4356.5H856.454V4361.5ZM876.407 4361.5H886.384V4356.5H876.407V4361.5ZM896.36 4361.5H906.337V4356.5H896.36V4361.5ZM916.314 4361.5H926.291V4356.5H916.314V4361.5ZM936.267 4361.5H946.244V4356.5H936.267V4361.5ZM956.221 4361.5H966.198V4356.5H956.221V4361.5ZM976.174 4361.5H986.151V4356.5H976.174V4361.5ZM996.128 4361.5H1006.1V4356.5H996.128V4361.5ZM1016.08 4361.5H1026.06V4356.5H1016.08V4361.5ZM1036.03 4361.5H1046.01V4356.5H1036.03V4361.5ZM1055.99 4361.5H1065.97V4356.5H1055.99V4361.5ZM1075.94 4361.5H1085.92V4356.5H1075.94V4361.5ZM1095.9 4361.5H1105.87V4356.5H1095.9V4361.5ZM1115.85 4361.5H1125.83V4356.5H1115.85V4361.5ZM1135.8 4361.5H1145.78V4356.5H1135.8V4361.5ZM1155.76 4361.5H1165.73V4356.5H1155.76V4361.5ZM1175.71 4361.5H1185.69V4356.5H1175.71V4361.5ZM1195.66 4361.5H1205.64V4356.5H1195.66V4361.5ZM1215.62 4361.5H1225.59V4356.5H1215.62V4361.5ZM1235.57 4361.5H1245.55V4356.5H1235.57V4361.5ZM1255.52 4361.5H1265.5V4356.5H1255.52V4361.5ZM1275.48 4361.5H1285.45V4356.5H1275.48V4361.5ZM1295.43 4361.5H1305.41V4356.5H1295.43V4361.5ZM1315.38 4361.5H1325.36V4356.5H1315.38V4361.5ZM1335.34 4361.5H1345.31V4356.5H1335.34V4361.5ZM1355.29 4361.5H1365.27V4356.5H1355.29V4361.5ZM1375.24 4361.5H1385.22V4356.5H1375.24V4361.5ZM1395.2 4361.5H1405.17V4356.5H1395.2V4361.5ZM1415.15 4361.5H1425.13V4356.5H1415.15V4361.5ZM1435.1 4361.5H1445.08V4356.5H1435.1V4361.5ZM1455.06 4361.5H1465.03V4356.5H1455.06V4361.5ZM1475.01 4361.5H1480V4356.5H1475.01V4361.5Z" fill="#7A7A7A"/>
<path d="M620.768 4360.77C621.744 4359.79 621.744 4358.21 620.768 4357.23L604.858 4341.32C603.882 4340.35 602.299 4340.35 601.322 4341.32C600.346 4342.3 600.346 4343.88 601.322 4344.86L615.464 4359L601.322 4373.14C600.346 4374.12 600.346 4375.7 601.322 4376.68C602.299 4377.65 603.882 4377.65 604.858 4376.68L620.768 4360.77ZM619 4356.5H614.012V4361.5H619V4356.5ZM604.035 4356.5H594.058V4361.5H604.035V4356.5ZM584.081 4356.5H574.105V4361.5H584.081V4356.5ZM564.128 4356.5H554.151V4361.5H564.128V4356.5ZM544.174 4356.5H534.198V4361.5H544.174V4356.5ZM524.221 4356.5H514.244V4361.5H524.221V4356.5ZM504.267 4356.5H494.291V4361.5H504.267V4356.5ZM484.314 4356.5H474.337V4361.5H484.314V4356.5ZM464.36 4356.5H454.384V4361.5H464.36V4356.5ZM444.407 4356.5H434.43V4361.5H444.407V4356.5ZM424.453 4356.5H414.477V4361.5H424.453V4356.5ZM404.5 4356.5H394.523V4361.5H404.5V4356.5ZM384.546 4356.5H374.57V4361.5H384.546V4356.5ZM364.593 4356.5H354.616V4361.5H364.593V4356.5ZM344.64 4356.5H334.663V4361.5H344.64V4356.5ZM324.686 4356.5H314.709V4361.5H324.686V4356.5ZM304.733 4356.5H294.756V4361.5H304.733V4356.5ZM284.779 4356.5H274.802V4361.5H284.779V4356.5ZM264.826 4356.5H254.849V4361.5H264.826V4356.5ZM244.872 4356.5H234.895V4361.5H244.872V4356.5ZM224.919 4356.5H214.942V4361.5H224.919V4356.5ZM204.965 4356.5H194.988V4361.5H204.965V4356.5ZM185.012 4356.5H175.035V4361.5H185.012V4356.5ZM165.058 4356.5H155.081V4361.5H165.058V4356.5ZM145.105 4356.5H135.128V4361.5H145.105V4356.5ZM125.151 4356.5H115.174V4361.5H125.151V4356.5ZM105.198 4356.5H95.2209V4361.5H105.198V4356.5ZM85.2441 4356.5H75.2674V4361.5H85.2441V4356.5ZM65.2906 4356.5H55.3139V4361.5H65.2906V4356.5ZM45.3371 4356.5H35.3604V4361.5H45.3371V4356.5ZM25.3836 4356.5H15.4069V4361.5H25.3836V4356.5ZM5.43019 4356.5H-4.54656V4361.5H5.43019V4356.5ZM-14.5233 4356.5H-24.5001V4361.5H-14.5233V4356.5ZM-34.4768 4356.5H-44.4536V4361.5H-34.4768V4356.5ZM-54.4303 4356.5H-64.4071V4361.5H-54.4303V4356.5ZM-74.3838 4356.5H-84.3606V4361.5H-74.3838V4356.5ZM-94.3373 4356.5H-104.314V4361.5H-94.3373V4356.5ZM-114.291 4356.5H-124.268V4361.5H-114.291V4356.5ZM-134.244 4356.5H-144.221V4361.5H-134.244V4356.5ZM-154.198 4356.5H-164.174V4361.5H-154.198V4356.5ZM-174.151 4356.5H-184.128V4361.5H-174.151V4356.5ZM-194.105 4356.5H-204.081V4361.5H-194.105V4356.5ZM-214.058 4356.5H-224.035V4361.5H-214.058V4356.5ZM-234.012 4356.5H-239V4361.5H-234.012V4356.5Z" fill="#7A7A7A"/>
<defs>
<filter id="filter0_f_177_19" x="787" y="4515" width="573" height="573" filterUnits="userSpaceOnUse" color-interpolation-filters="sRGB">
<feFlood flood-opacity="0" result="BackgroundImageFix"/>
<feBlend mode="normal" in="SourceGraphic" in2="BackgroundImageFix" result="shape"/>
<feGaussianBlur stdDeviation="2" result="effect1_foregroundBlur_177_19"/>
</filter>
<linearGradient id="paint0_linear_177_19" x1="633" y1="136" x2="633" y2="495" gradientUnits="userSpaceOnUse">
<stop stop-color="#3A3A3A"/>
<stop offset="1" stop-opacity="0"/>
</linearGradient>
<linearGradient id="paint1_linear_177_19" x1="637" y1="637" x2="637" y2="749.205" gradientUnits="userSpaceOnUse">
<stop stop-opacity="0"/>
<stop offset="1" stop-color="#D9D9D9"/>
</linearGradient>
<linearGradient id="paint2_linear_177_19" x1="1240.5" y1="255.768" x2="974" y2="255.768" gradientUnits="userSpaceOnUse">
<stop stop-color="#1C1C1C"/>
<stop offset="1" stop-color="#292929" stop-opacity="0"/>
</linearGradient>
<linearGradient id="paint3_linear_177_19" x1="399.496" y1="2336.77" x2="133" y2="2336.77" gradientUnits="userSpaceOnUse">
<stop stop-color="#1C1C1C"/>
<stop offset="1" stop-color="#292929" stop-opacity="0"/>
</linearGradient>
<linearGradient id="paint4_linear_177_19" x1="622.496" y1="2947.77" x2="356" y2="2947.77" gradientUnits="userSpaceOnUse">
<stop stop-color="#1C1C1C"/>
<stop offset="1" stop-color="#292929" stop-opacity="0"/>
</linearGradient>
<linearGradient id="paint5_linear_177_19" x1="890.496" y1="1496.77" x2="624" y2="1496.77" gradientUnits="userSpaceOnUse">
<stop stop-color="#1C1C1C"/>
<stop offset="1" stop-color="#292929" stop-opacity="0"/>
</linearGradient>
<linearGradient id="paint6_linear_177_19" x1="634.54" y1="418.508" x2="639.197" y2="722.145" gradientUnits="userSpaceOnUse">
<stop stop-color="#333333"/>
<stop offset="1" stop-opacity="0"/>
</linearGradient>
<linearGradient id="paint7_linear_177_19" x1="934.54" y1="2038.51" x2="939.197" y2="2342.15" gradientUnits="userSpaceOnUse">
<stop stop-color="#333333"/>
<stop offset="1" stop-opacity="0"/>
</linearGradient>
<linearGradient id="paint8_linear_177_19" x1="572.54" y1="977.508" x2="577.197" y2="1281.15" gradientUnits="userSpaceOnUse">
<stop stop-color="#333333"/>
<stop offset="1" stop-opacity="0"/>
</linearGradient>
<linearGradient id="paint9_linear_177_19" x1="1095.54" y1="2879.51" x2="1100.2" y2="3183.15" gradientUnits="userSpaceOnUse">
<stop stop-color="#333333"/>
<stop offset="1" stop-opacity="0"/>
</linearGradient>
<linearGradient id="paint10_linear_177_19" x1="1174.44" y1="461" x2="1174.44" y2="752.864" gradientUnits="userSpaceOnUse">
<stop stop-color="#1E1E1E"/>
<stop offset="1" stop-color="#121212" stop-opacity="0"/>
</linearGradient>
<linearGradient id="paint11_linear_177_19" x1="838.776" y1="1769.45" x2="1001.73" y2="2011.59" gradientUnits="userSpaceOnUse">
<stop stop-color="#1E1E1E"/>
<stop offset="1" stop-color="#121212" stop-opacity="0"/>
</linearGradient>
<linearGradient id="paint12_linear_177_19" x1="171.5" y1="416" x2="171.5" y2="686" gradientUnits="userSpaceOnUse">
<stop stop-color="#252525"/>
<stop offset="1" stop-opacity="0.2"/>
</linearGradient>
<linearGradient id="paint13_linear_177_19" x1="182.5" y1="1778" x2="182.5" y2="2048" gradientUnits="userSpaceOnUse">
<stop stop-color="#252525"/>
<stop offset="1" stop-opacity="0.2"/>
</linearGradient>
<linearGradient id="paint14_linear_177_19" x1="1219.5" y1="3242" x2="1219.5" y2="3512" gradientUnits="userSpaceOnUse">
<stop stop-color="#252525"/>
<stop offset="1" stop-opacity="0.2"/>
</linearGradient>
<linearGradient id="paint15_linear_177_19" x1="1066.5" y1="898" x2="1066.5" y2="1168" gradientUnits="userSpaceOnUse">
<stop stop-color="#252525"/>
<stop offset="1" stop-opacity="0.2"/>
</linearGradient>
<linearGradient id="paint16_linear_177_19" x1="179.5" y1="856" x2="179.5" y2="1126" gradientUnits="userSpaceOnUse">
<stop stop-color="#252525"/>
<stop offset="1" stop-opacity="0.2"/>
</linearGradient>
<linearGradient id="paint17_linear_177_19" x1="249.914" y1="90.9877" x2="251.934" y2="448.665" gradientUnits="userSpaceOnUse">
<stop stop-color="#3B3B3B"/>
<stop offset="1" stop-color="#0B0B0B" stop-opacity="0"/>
</linearGradient>
<linearGradient id="paint18_linear_177_19" x1="1250.91" y1="1762.99" x2="1252.93" y2="2120.66" gradientUnits="userSpaceOnUse">
<stop stop-color="#3B3B3B"/>
<stop offset="1" stop-color="#0B0B0B" stop-opacity="0"/>
</linearGradient>
<linearGradient id="paint19_linear_177_19" x1="60.9144" y1="2375.99" x2="62.9341" y2="2733.67" gradientUnits="userSpaceOnUse">
<stop stop-color="#3B3B3B"/>
<stop offset="1" stop-color="#0B0B0B" stop-opacity="0"/>
</linearGradient>
<linearGradient id="paint20_linear_177_19" x1="112.914" y1="1302.99" x2="114.934" y2="1660.67" gradientUnits="userSpaceOnUse">
<stop stop-color="#3B3B3B"/>
<stop offset="1" stop-color="#0B0B0B" stop-opacity="0"/>
</linearGradient>
<linearGradient id="paint21_linear_177_19" x1="747.914" y1="3188.99" x2="749.934" y2="3546.66" gradientUnits="userSpaceOnUse">
<stop stop-color="#3B3B3B"/>
<stop offset="1" stop-color="#0B0B0B" stop-opacity="0"/>
</linearGradient>
<linearGradient id="paint22_linear_177_19" x1="1148" y1="2489" x2="1148" y2="2848" gradientUnits="userSpaceOnUse">
<stop stop-color="#3A3A3A"/>
<stop offset="1" stop-opacity="0"/>
</linearGradient>
<linearGradient id="paint23_linear_177_19" x1="510" y1="1402" x2="510" y2="1761" gradientUnits="userSpaceOnUse">
<stop stop-color="#3A3A3A"/>
<stop offset="1" stop-opacity="0"/>
</linearGradient>
<linearGradient id="paint24_linear_177_19" x1="172" y1="3242" x2="172" y2="3601" gradientUnits="userSpaceOnUse">
<stop stop-color="#3A3A3A"/>
<stop offset="1" stop-opacity="0"/>
</linearGradient>
</defs>
</svg>
