<svg width="291" height="434" viewBox="0 0 291 434" fill="none" xmlns="http://www.w3.org/2000/svg">
<path opacity="0.68" d="M151.239 153.77C110.943 199.561 16.1943 218.039 16.1943 218.039C16.1943 218.039 111.082 235.339 151.732 280.627C192.381 325.916 208.694 432.506 208.694 432.506C208.694 432.506 224.178 325.718 264.474 279.927C304.77 234.135 399.519 215.657 399.519 215.657C399.519 215.657 304.632 198.358 263.982 153.069C223.332 107.781 207.02 1.19104 207.02 1.19104C207.02 1.19104 191.536 107.979 151.239 153.77Z" stroke="white"/>
<path opacity="0.68" d="M135.899 153.77C95.6033 199.561 0.854438 218.039 0.854438 218.039C0.854438 218.039 95.7421 235.339 136.392 280.627C177.041 325.916 193.354 432.506 193.354 432.506C193.354 432.506 208.838 325.718 249.134 279.927C289.431 234.135 384.179 215.657 384.179 215.657C384.179 215.657 289.292 198.358 248.642 153.069C207.992 107.781 191.68 1.19104 191.68 1.19104C191.68 1.19104 176.196 107.979 135.899 153.77Z" stroke="white"/>
</svg>
