<svg width="310" height="161" viewBox="0 0 310 161" fill="none" xmlns="http://www.w3.org/2000/svg">
<circle cx="5.23393" cy="4.03217" r="4" transform="rotate(0.459108 5.23393 4.03217)" fill="#4F4F4F"/>
<circle cx="35.233" cy="4.27265" r="4" transform="rotate(0.459108 35.233 4.27265)" fill="#4F4F4F"/>
<circle cx="65.232" cy="4.51288" r="4" transform="rotate(0.459108 65.232 4.51288)" fill="#4F4F4F"/>
<circle cx="95.231" cy="4.75336" r="4" transform="rotate(0.459108 95.231 4.75336)" fill="#4F4F4F"/>
<circle cx="125.23" cy="4.99359" r="4" transform="rotate(0.459108 125.23 4.99359)" fill="#4F4F4F"/>
<circle cx="155.229" cy="5.23407" r="4" transform="rotate(0.459108 155.229 5.23407)" fill="#4F4F4F"/>
<circle cx="185.228" cy="5.47455" r="4" transform="rotate(0.459108 185.228 5.47455)" fill="#4F4F4F"/>
<circle cx="215.227" cy="5.71478" r="4" transform="rotate(0.459108 215.227 5.71478)" fill="#4F4F4F"/>
<circle cx="245.226" cy="5.95526" r="4" transform="rotate(0.459108 245.226 5.95526)" fill="#4F4F4F"/>
<circle cx="275.225" cy="6.19574" r="4" transform="rotate(0.459108 275.225 6.19574)" fill="#4F4F4F"/>
<circle cx="305.224" cy="6.43598" r="4" transform="rotate(0.459108 305.224 6.43598)" fill="#4F4F4F"/>
<circle cx="4.9937" cy="34.0312" r="4" transform="rotate(0.459108 4.9937 34.0312)" fill="#4F4F4F"/>
<circle cx="34.9927" cy="34.2717" r="4" transform="rotate(0.459108 34.9927 34.2717)" fill="#4F4F4F"/>
<circle cx="64.9917" cy="34.5119" r="4" transform="rotate(0.459108 64.9917 34.5119)" fill="#4F4F4F"/>
<circle cx="94.9908" cy="34.7524" r="4" transform="rotate(0.459108 94.9908 34.7524)" fill="#4F4F4F"/>
<circle cx="124.99" cy="34.9926" r="4" transform="rotate(0.459108 124.99 34.9926)" fill="#4F4F4F"/>
<circle cx="154.989" cy="35.2331" r="4" transform="rotate(0.459108 154.989 35.2331)" fill="#4F4F4F"/>
<circle cx="184.988" cy="35.4736" r="4" transform="rotate(0.459108 184.988 35.4736)" fill="#4F4F4F"/>
<circle cx="214.987" cy="35.7138" r="4" transform="rotate(0.459108 214.987 35.7138)" fill="#4F4F4F"/>
<circle cx="244.986" cy="35.9543" r="4" transform="rotate(0.459108 244.986 35.9543)" fill="#4F4F4F"/>
<circle cx="274.985" cy="36.1948" r="4" transform="rotate(0.459108 274.985 36.1948)" fill="#4F4F4F"/>
<circle cx="304.984" cy="36.435" r="4" transform="rotate(0.459108 304.984 36.435)" fill="#4F4F4F"/>
<circle cx="4.75298" cy="64.0302" r="4" transform="rotate(0.459108 4.75298 64.0302)" fill="#4F4F4F"/>
<circle cx="34.752" cy="64.2707" r="4" transform="rotate(0.459108 34.752 64.2707)" fill="#4F4F4F"/>
<circle cx="64.751" cy="64.5109" r="4" transform="rotate(0.459108 64.751 64.5109)" fill="#4F4F4F"/>
<circle cx="94.75" cy="64.7514" r="4" transform="rotate(0.459108 94.75 64.7514)" fill="#4F4F4F"/>
<circle cx="124.749" cy="64.9919" r="4" transform="rotate(0.459108 124.749 64.9919)" fill="#4F4F4F"/>
<circle cx="154.748" cy="65.2321" r="4" transform="rotate(0.459108 154.748 65.2321)" fill="#4F4F4F"/>
<circle cx="184.747" cy="65.4726" r="4" transform="rotate(0.459108 184.747 65.4726)" fill="#4F4F4F"/>
<circle cx="214.746" cy="65.7128" r="4" transform="rotate(0.459108 214.746 65.7128)" fill="#4F4F4F"/>
<circle cx="244.746" cy="65.9533" r="4" transform="rotate(0.459108 244.746 65.9533)" fill="#4F4F4F"/>
<circle cx="274.745" cy="66.1938" r="4" transform="rotate(0.459108 274.745 66.1938)" fill="#4F4F4F"/>
<circle cx="304.744" cy="66.434" r="4" transform="rotate(0.459108 304.744 66.434)" fill="#4F4F4F"/>
<circle cx="4.51274" cy="94.0292" r="4" transform="rotate(0.459108 4.51274 94.0292)" fill="#4F4F4F"/>
<circle cx="34.5118" cy="94.2697" r="4" transform="rotate(0.459108 34.5118 94.2697)" fill="#4F4F4F"/>
<circle cx="64.5108" cy="94.5099" r="4" transform="rotate(0.459108 64.5108 94.5099)" fill="#4F4F4F"/>
<circle cx="94.5098" cy="94.7504" r="4" transform="rotate(0.459108 94.5098 94.7504)" fill="#4F4F4F"/>
<circle cx="124.509" cy="94.9909" r="4" transform="rotate(0.459108 124.509 94.9909)" fill="#4F4F4F"/>
<circle cx="154.508" cy="95.2311" r="4" transform="rotate(0.459108 154.508 95.2311)" fill="#4F4F4F"/>
<circle cx="184.507" cy="95.4716" r="4" transform="rotate(0.459108 184.507 95.4716)" fill="#4F4F4F"/>
<circle cx="214.506" cy="95.7119" r="4" transform="rotate(0.459108 214.506 95.7119)" fill="#4F4F4F"/>
<circle cx="244.505" cy="95.9523" r="4" transform="rotate(0.459108 244.505 95.9523)" fill="#4F4F4F"/>
<circle cx="274.504" cy="96.1928" r="4" transform="rotate(0.459108 274.504 96.1928)" fill="#4F4F4F"/>
<circle cx="304.503" cy="96.433" r="4" transform="rotate(0.459108 304.503 96.433)" fill="#4F4F4F"/>
<circle cx="4.27251" cy="124.028" r="4" transform="rotate(0.459108 4.27251 124.028)" fill="#4F4F4F"/>
<circle cx="34.2715" cy="124.269" r="4" transform="rotate(0.459108 34.2715 124.269)" fill="#4F4F4F"/>
<circle cx="64.2706" cy="124.509" r="4" transform="rotate(0.459108 64.2706 124.509)" fill="#4F4F4F"/>
<circle cx="94.2696" cy="124.749" r="4" transform="rotate(0.459108 94.2696 124.749)" fill="#4F4F4F"/>
<circle cx="124.269" cy="124.99" r="4" transform="rotate(0.459108 124.269 124.99)" fill="#4F4F4F"/>
<circle cx="154.268" cy="125.23" r="4" transform="rotate(0.459108 154.268 125.23)" fill="#4F4F4F"/>
<circle cx="184.267" cy="125.471" r="4" transform="rotate(0.459108 184.267 125.471)" fill="#4F4F4F"/>
<circle cx="214.266" cy="125.711" r="4" transform="rotate(0.459108 214.266 125.711)" fill="#4F4F4F"/>
<circle cx="244.265" cy="125.951" r="4" transform="rotate(0.459108 244.265 125.951)" fill="#4F4F4F"/>
<circle cx="274.264" cy="126.192" r="4" transform="rotate(0.459108 274.264 126.192)" fill="#4F4F4F"/>
<circle cx="304.263" cy="126.432" r="4" transform="rotate(0.459108 304.263 126.432)" fill="#4F4F4F"/>
<circle cx="4.03179" cy="154.027" r="4" transform="rotate(0.459108 4.03179 154.027)" fill="#4F4F4F"/>
<circle cx="34.0308" cy="154.268" r="4" transform="rotate(0.459108 34.0308 154.268)" fill="#4F4F4F"/>
<circle cx="64.0298" cy="154.508" r="4" transform="rotate(0.459108 64.0298 154.508)" fill="#4F4F4F"/>
<circle cx="94.0289" cy="154.748" r="4" transform="rotate(0.459108 94.0289 154.748)" fill="#4F4F4F"/>
<circle cx="124.028" cy="154.989" r="4" transform="rotate(0.459108 124.028 154.989)" fill="#4F4F4F"/>
<circle cx="154.027" cy="155.229" r="4" transform="rotate(0.459108 154.027 155.229)" fill="#4F4F4F"/>
<circle cx="184.026" cy="155.47" r="4" transform="rotate(0.459108 184.026 155.47)" fill="#4F4F4F"/>
<circle cx="214.025" cy="155.71" r="4" transform="rotate(0.459108 214.025 155.71)" fill="#4F4F4F"/>
<circle cx="244.024" cy="155.95" r="4" transform="rotate(0.459108 244.024 155.95)" fill="#4F4F4F"/>
<circle cx="274.023" cy="156.191" r="4" transform="rotate(0.459108 274.023 156.191)" fill="#4F4F4F"/>
<circle cx="304.023" cy="156.431" r="4" transform="rotate(0.459108 304.023 156.431)" fill="#4F4F4F"/>
</svg>
